STARTFONT 2.1
COMMENT
COMMENT Converted from OpenType font "Orkney-Regular.otf" by "otf2bdf 3.0".
COMMENT
FONT -FreeType-Orkney-Medium-R-Normal--17-120-100-100-P-84-ISO10646-1
SIZE 12 100 100
FONTBOUNDINGBOX 33 22 -13 -5
STARTPROPERTIES 19
FOUNDRY "FreeType"
FAMILY_NAME "Orkney"
WEIGHT_NAME "Medium"
SLANT "R"
SETWIDTH_NAME "Normal"
ADD_STYLE_NAME ""
PIXEL_SIZE 17
POINT_SIZE 120
RESOLUTION_X 100
RESOLUTION_Y 100
SPACING "P"
AVERAGE_WIDTH 84
CHARSET_REGISTRY "ISO10646"
CHARSET_ENCODING "1"
FONT_ASCENT 12
FONT_DESCENT 4
COPYRIGHT "©2013-2015 Orkney is a trademark of Samuel Oakes and Alfredo Marco Pradil. All rights reserved."
_OTF_FONTFILE "Orkney-Regular.otf"
_OTF_PSNAME "Orkney-Regular"
ENDPROPERTIES
CHARS 429
STARTCHAR 0020
ENCODING 32
SWIDTH 240 0
DWIDTH 4 0
BBX 0 0 0 0
BITMAP
ENDCHAR
STARTCHAR 0021
ENCODING 33
SWIDTH 300 0
DWIDTH 5 0
BBX 2 13 1 0
BITMAP
40
40
40
40
40
40
40
40
40
00
00
40
C0
ENDCHAR
STARTCHAR 0022
ENCODING 34
SWIDTH 420 0
DWIDTH 7 0
BBX 5 5 1 8
BITMAP
D8
D8
D8
D8
58
ENDCHAR
STARTCHAR 0023
ENCODING 35
SWIDTH 780 0
DWIDTH 13 0
BBX 11 12 1 0
BITMAP
1880
1880
1980
7FE0
1100
1100
1100
3100
FFC0
3300
2300
2200
ENDCHAR
STARTCHAR 0024
ENCODING 36
SWIDTH 660 0
DWIDTH 11 0
BBX 9 16 1 -1
BITMAP
0800
0800
3E00
6300
4000
4000
6000
7000
1E00
0300
0180
0180
C100
6700
3E00
0800
ENDCHAR
STARTCHAR 0025
ENCODING 37
SWIDTH 780 0
DWIDTH 13 0
BBX 11 13 1 0
BITMAP
70C0
D0C0
9980
9B00
7300
0600
0C00
0C00
19C0
3260
3260
6340
C1C0
ENDCHAR
STARTCHAR 0026
ENCODING 38
SWIDTH 720 0
DWIDTH 12 0
BBX 10 13 2 0
BITMAP
3800
7C00
C400
C000
C000
6000
7000
D880
8DC0
8780
C700
EF80
38C0
ENDCHAR
STARTCHAR 0027
ENCODING 39
SWIDTH 240 0
DWIDTH 4 0
BBX 2 5 1 8
BITMAP
C0
C0
C0
C0
40
ENDCHAR
STARTCHAR 0028
ENCODING 40
SWIDTH 420 0
DWIDTH 7 0
BBX 5 19 1 -5
BITMAP
18
30
20
60
40
C0
C0
C0
C0
C0
C0
C0
C0
C0
40
40
60
30
18
ENDCHAR
STARTCHAR 0029
ENCODING 41
SWIDTH 420 0
DWIDTH 7 0
BBX 5 19 1 -5
BITMAP
80
60
20
30
10
10
10
18
18
18
18
18
18
10
10
30
20
60
C0
ENDCHAR
STARTCHAR 002A
ENCODING 42
SWIDTH 360 0
DWIDTH 6 0
BBX 4 5 1 8
BITMAP
20
60
F0
60
20
ENDCHAR
STARTCHAR 002B
ENCODING 43
SWIDTH 780 0
DWIDTH 13 0
BBX 11 10 1 0
BITMAP
0400
0400
0400
0400
FFE0
FFE0
0400
0400
0400
0400
ENDCHAR
STARTCHAR 002C
ENCODING 44
SWIDTH 240 0
DWIDTH 4 0
BBX 2 5 1 -3
BITMAP
C0
C0
40
40
80
ENDCHAR
STARTCHAR 002D
ENCODING 45
SWIDTH 540 0
DWIDTH 9 0
BBX 6 1 1 4
BITMAP
FC
ENDCHAR
STARTCHAR 002E
ENCODING 46
SWIDTH 180 0
DWIDTH 3 0
BBX 2 2 1 0
BITMAP
80
C0
ENDCHAR
STARTCHAR 002F
ENCODING 47
SWIDTH 600 0
DWIDTH 10 0
BBX 10 17 0 -4
BITMAP
00C0
0080
0180
0100
0300
0200
0600
0400
0C00
1800
1800
3000
3000
6000
6000
C000
8000
ENDCHAR
STARTCHAR 0030
ENCODING 48
SWIDTH 660 0
DWIDTH 11 0
BBX 9 13 1 0
BITMAP
1C00
3F00
6100
4180
C180
C080
C080
C080
C180
4180
6100
3F00
1C00
ENDCHAR
STARTCHAR 0031
ENCODING 49
SWIDTH 420 0
DWIDTH 7 0
BBX 5 13 0 0
BITMAP
18
78
F8
98
18
18
18
18
18
18
18
18
18
ENDCHAR
STARTCHAR 0032
ENCODING 50
SWIDTH 600 0
DWIDTH 10 0
BBX 8 13 1 0
BITMAP
3C
7E
C3
C3
03
06
06
0C
18
30
60
C0
FF
ENDCHAR
STARTCHAR 0033
ENCODING 51
SWIDTH 600 0
DWIDTH 10 0
BBX 8 13 1 0
BITMAP
3C
7E
46
42
06
04
1C
06
03
C3
C3
7E
3C
ENDCHAR
STARTCHAR 0034
ENCODING 52
SWIDTH 600 0
DWIDTH 10 0
BBX 9 13 0 0
BITMAP
0300
0700
0F00
0B00
1B00
1300
3300
6300
4300
FF80
FF80
0300
0300
ENDCHAR
STARTCHAR 0035
ENCODING 53
SWIDTH 600 0
DWIDTH 10 0
BBX 8 12 1 0
BITMAP
7F
40
40
C0
FE
43
03
01
01
43
FE
3C
ENDCHAR
STARTCHAR 0036
ENCODING 54
SWIDTH 660 0
DWIDTH 11 0
BBX 9 13 1 0
BITMAP
0600
0C00
1800
1000
3E00
7700
C100
C180
C180
C180
C100
7700
3C00
ENDCHAR
STARTCHAR 0037
ENCODING 55
SWIDTH 540 0
DWIDTH 9 0
BBX 9 13 0 0
BITMAP
FF80
0180
0100
0300
0600
0600
0C00
0C00
1800
1800
3000
2000
6000
ENDCHAR
STARTCHAR 0038
ENCODING 56
SWIDTH 600 0
DWIDTH 10 0
BBX 8 13 1 0
BITMAP
3C
6E
C6
C2
C2
66
7C
C6
83
83
C3
FE
3C
ENDCHAR
STARTCHAR 0039
ENCODING 57
SWIDTH 660 0
DWIDTH 11 0
BBX 9 13 1 0
BITMAP
3C00
7700
C100
C180
C180
C180
C100
7700
3E00
0C00
0800
1800
3000
ENDCHAR
STARTCHAR 003A
ENCODING 58
SWIDTH 300 0
DWIDTH 5 0
BBX 2 9 1 0
BITMAP
40
C0
00
00
00
00
00
40
C0
ENDCHAR
STARTCHAR 003B
ENCODING 59
SWIDTH 300 0
DWIDTH 5 0
BBX 2 12 2 -3
BITMAP
80
80
00
00
00
00
00
80
C0
40
80
80
ENDCHAR
STARTCHAR 003C
ENCODING 60
SWIDTH 720 0
DWIDTH 12 0
BBX 10 11 1 0
BITMAP
0040
01C0
0700
1C00
7000
C000
7000
1C00
0700
01C0
0040
ENDCHAR
STARTCHAR 003D
ENCODING 61
SWIDTH 720 0
DWIDTH 12 0
BBX 10 5 1 2
BITMAP
FFC0
0000
0000
0000
FFC0
ENDCHAR
STARTCHAR 003E
ENCODING 62
SWIDTH 720 0
DWIDTH 12 0
BBX 10 11 1 0
BITMAP
C000
7000
1800
0E00
0380
00C0
0380
0E00
3800
E000
8000
ENDCHAR
STARTCHAR 003F
ENCODING 63
SWIDTH 540 0
DWIDTH 9 0
BBX 7 13 1 0
BITMAP
3C
7E
C2
82
02
06
1C
18
10
00
00
18
18
ENDCHAR
STARTCHAR 0040
ENCODING 64
SWIDTH 600 0
DWIDTH 10 0
BBX 8 9 1 0
BITMAP
3C
42
8D
93
91
93
CD
60
3F
ENDCHAR
STARTCHAR 0041
ENCODING 65
SWIDTH 720 0
DWIDTH 12 0
BBX 12 13 0 0
BITMAP
0600
0700
0F00
0D00
1980
1980
18C0
30C0
3040
7FE0
6060
6030
C030
ENDCHAR
STARTCHAR 0042
ENCODING 66
SWIDTH 660 0
DWIDTH 11 0
BBX 9 13 1 0
BITMAP
FC00
FF00
C300
C300
C300
C600
FF00
C180
C180
C180
C180
FF00
FE00
ENDCHAR
STARTCHAR 0043
ENCODING 67
SWIDTH 660 0
DWIDTH 11 0
BBX 9 13 1 0
BITMAP
0F00
3F80
6080
C000
C000
8000
8000
8000
C000
C000
6080
3F80
0F00
ENDCHAR
STARTCHAR 0044
ENCODING 68
SWIDTH 720 0
DWIDTH 12 0
BBX 10 13 1 0
BITMAP
FC00
FF00
C180
C180
C0C0
C0C0
C0C0
C0C0
C0C0
C180
C180
FF00
FC00
ENDCHAR
STARTCHAR 0045
ENCODING 69
SWIDTH 540 0
DWIDTH 9 0
BBX 7 13 1 0
BITMAP
FE
FE
C0
C0
C0
FE
FE
C0
C0
C0
C0
FE
FE
ENDCHAR
STARTCHAR 0046
ENCODING 70
SWIDTH 540 0
DWIDTH 9 0
BBX 7 13 1 0
BITMAP
FE
FE
C0
C0
C0
FE
FE
C0
C0
C0
C0
C0
C0
ENDCHAR
STARTCHAR 0047
ENCODING 71
SWIDTH 720 0
DWIDTH 12 0
BBX 10 13 1 0
BITMAP
0F80
3FC0
7040
6000
C000
C000
C3C0
C3C0
C040
6040
7040
3FC0
0F80
ENDCHAR
STARTCHAR 0048
ENCODING 72
SWIDTH 720 0
DWIDTH 12 0
BBX 10 13 1 0
BITMAP
C0C0
C0C0
C0C0
C0C0
C0C0
C0C0
FFC0
FFC0
C0C0
C0C0
C0C0
C0C0
C0C0
ENDCHAR
STARTCHAR 0049
ENCODING 73
SWIDTH 240 0
DWIDTH 4 0
BBX 2 13 1 0
BITMAP
C0
C0
C0
C0
C0
C0
C0
C0
C0
C0
C0
C0
C0
ENDCHAR
STARTCHAR 004A
ENCODING 74
SWIDTH 360 0
DWIDTH 6 0
BBX 4 13 1 0
BITMAP
30
30
30
30
30
30
30
30
30
30
30
F0
E0
ENDCHAR
STARTCHAR 004B
ENCODING 75
SWIDTH 600 0
DWIDTH 10 0
BBX 9 13 1 -1
BITMAP
C380
C700
CE00
DC00
D800
F000
F000
D800
CC00
C600
C300
C180
C080
ENDCHAR
STARTCHAR 004C
ENCODING 76
SWIDTH 480 0
DWIDTH 8 0
BBX 6 13 1 0
BITMAP
C0
C0
C0
C0
C0
C0
C0
C0
C0
C0
C0
FC
FC
ENDCHAR
STARTCHAR 004D
ENCODING 77
SWIDTH 900 0
DWIDTH 15 0
BBX 13 13 1 0
BITMAP
C018
E038
F038
F078
D8D8
CC98
CD98
C718
C218
C218
C018
C018
C018
ENDCHAR
STARTCHAR 004E
ENCODING 78
SWIDTH 780 0
DWIDTH 13 0
BBX 11 13 1 0
BITMAP
C060
E060
F060
F060
D860
CC60
CE60
C660
C360
C1E0
C1E0
C0E0
C060
ENDCHAR
STARTCHAR 004F
ENCODING 79
SWIDTH 840 0
DWIDTH 14 0
BBX 12 13 1 0
BITMAP
0F00
3FC0
6060
C020
C030
8030
8030
8030
C030
C020
6060
3FC0
0F00
ENDCHAR
STARTCHAR 0050
ENCODING 80
SWIDTH 600 0
DWIDTH 10 0
BBX 8 13 1 0
BITMAP
FE
FF
C3
C1
C1
C3
FE
C0
C0
C0
C0
C0
C0
ENDCHAR
STARTCHAR 0051
ENCODING 81
SWIDTH 840 0
DWIDTH 14 0
BBX 13 13 1 0
BITMAP
0F00
3FC0
6060
C020
C030
8030
8030
8030
C1B0
C0F0
6060
3FF8
0F18
ENDCHAR
STARTCHAR 0052
ENCODING 82
SWIDTH 600 0
DWIDTH 10 0
BBX 9 13 1 0
BITMAP
FE00
FF00
C300
C100
C100
C300
FE00
CC00
CC00
C600
C200
C300
C180
ENDCHAR
STARTCHAR 0053
ENCODING 83
SWIDTH 600 0
DWIDTH 10 0
BBX 9 13 1 0
BITMAP
3E00
7F00
C100
C000
6000
7800
1E00
0300
0180
0180
C180
FF00
3E00
ENDCHAR
STARTCHAR 0054
ENCODING 84
SWIDTH 540 0
DWIDTH 9 0
BBX 9 13 0 0
BITMAP
FF80
FF80
0800
0800
0800
0800
0800
0800
0800
0800
0800
0800
0800
ENDCHAR
STARTCHAR 0055
ENCODING 85
SWIDTH 720 0
DWIDTH 12 0
BBX 10 13 1 0
BITMAP
C0C0
C0C0
C0C0
C0C0
C0C0
C0C0
C0C0
C0C0
C0C0
C0C0
6180
7F80
1E00
ENDCHAR
STARTCHAR 0056
ENCODING 86
SWIDTH 720 0
DWIDTH 12 0
BBX 12 13 0 0
BITMAP
C030
4060
6060
6060
30C0
30C0
3080
1980
1980
0B00
0F00
0F00
0600
ENDCHAR
STARTCHAR 0057
ENCODING 87
SWIDTH 1080 0
DWIDTH 18 0
BBX 18 13 0 0
BITMAP
C300C0
C300C0
618180
618180
20C180
30C300
30C300
19E600
19E600
093400
0F3C00
0E1C00
061800
ENDCHAR
STARTCHAR 0058
ENCODING 88
SWIDTH 660 0
DWIDTH 11 0
BBX 11 13 0 0
BITMAP
60C0
60C0
3180
1300
1B00
0E00
0C00
0E00
1B00
3300
3180
60C0
C0E0
ENDCHAR
STARTCHAR 0059
ENCODING 89
SWIDTH 660 0
DWIDTH 11 0
BBX 11 13 0 0
BITMAP
C0E0
60C0
3180
3180
1B00
0E00
0E00
0400
0400
0400
0400
0400
0400
ENDCHAR
STARTCHAR 005A
ENCODING 90
SWIDTH 660 0
DWIDTH 11 0
BBX 9 13 1 0
BITMAP
FF80
FF80
0300
0600
0600
0C00
1800
1800
3000
6000
6000
FF80
FF80
ENDCHAR
STARTCHAR 005B
ENCODING 91
SWIDTH 300 0
DWIDTH 5 0
BBX 4 19 1 -5
BITMAP
F0
C0
C0
C0
C0
C0
C0
C0
C0
C0
C0
C0
C0
C0
C0
C0
C0
C0
F0
ENDCHAR
STARTCHAR 005C
ENCODING 92
SWIDTH 600 0
DWIDTH 10 0
BBX 10 17 0 -4
BITMAP
8000
C000
6000
6000
3000
3000
1800
1800
0C00
0400
0600
0200
0300
0100
0180
0080
00C0
ENDCHAR
STARTCHAR 005D
ENCODING 93
SWIDTH 300 0
DWIDTH 5 0
BBX 4 19 1 -5
BITMAP
F0
30
30
30
30
30
30
30
30
30
30
30
30
30
30
30
30
30
F0
ENDCHAR
STARTCHAR 005E
ENCODING 94
SWIDTH 720 0
DWIDTH 12 0
BBX 10 9 1 4
BITMAP
0C00
1C00
1600
3200
2300
6100
4180
C080
80C0
ENDCHAR
STARTCHAR 005F
ENCODING 95
SWIDTH 660 0
DWIDTH 11 0
BBX 9 1 1 -1
BITMAP
FF80
ENDCHAR
STARTCHAR 0060
ENCODING 96
SWIDTH 60 0
DWIDTH 1 0
BBX 3 3 1 10
BITMAP
80
C0
60
ENDCHAR
STARTCHAR 0061
ENCODING 97
SWIDTH 540 0
DWIDTH 9 0
BBX 7 8 1 0
BITMAP
FC
C6
06
7E
C6
86
FE
76
ENDCHAR
STARTCHAR 0062
ENCODING 98
SWIDTH 600 0
DWIDTH 10 0
BBX 8 13 1 0
BITMAP
C0
C0
C0
C0
DC
FE
C3
C1
C1
C1
C3
FE
DC
ENDCHAR
STARTCHAR 0063
ENCODING 99
SWIDTH 420 0
DWIDTH 7 0
BBX 6 8 1 0
BITMAP
7C
C4
80
80
80
C0
EC
3C
ENDCHAR
STARTCHAR 0064
ENCODING 100
SWIDTH 600 0
DWIDTH 10 0
BBX 8 13 1 0
BITMAP
03
03
03
03
3B
FF
C3
83
83
83
C3
FF
3B
ENDCHAR
STARTCHAR 0065
ENCODING 101
SWIDTH 540 0
DWIDTH 9 0
BBX 8 8 1 0
BITMAP
7C
C6
82
FF
80
C0
EE
3C
ENDCHAR
STARTCHAR 0066
ENCODING 102
SWIDTH 360 0
DWIDTH 6 0
BBX 6 13 1 0
BITMAP
3C
60
60
60
F8
60
60
60
60
60
60
60
60
ENDCHAR
STARTCHAR 0067
ENCODING 103
SWIDTH 600 0
DWIDTH 10 0
BBX 8 13 1 -4
BITMAP
3B
FF
C3
83
83
83
C3
FF
3B
03
02
7E
3C
ENDCHAR
STARTCHAR 0068
ENCODING 104
SWIDTH 600 0
DWIDTH 10 0
BBX 8 13 1 0
BITMAP
C0
C0
C0
C0
DC
FE
C3
C3
C3
C3
C3
C3
C3
ENDCHAR
STARTCHAR 0069
ENCODING 105
SWIDTH 300 0
DWIDTH 5 0
BBX 2 12 1 0
BITMAP
C0
C0
00
C0
C0
C0
C0
C0
C0
C0
C0
C0
ENDCHAR
STARTCHAR 006A
ENCODING 106
SWIDTH 240 0
DWIDTH 4 0
BBX 4 16 -1 -4
BITMAP
30
10
00
10
10
10
10
10
10
10
10
10
10
10
B0
E0
ENDCHAR
STARTCHAR 006B
ENCODING 107
SWIDTH 480 0
DWIDTH 8 0
BBX 7 14 1 -1
BITMAP
C0
C0
C0
C0
C6
CC
D8
F0
F0
D8
CC
C6
C2
02
ENDCHAR
STARTCHAR 006C
ENCODING 108
SWIDTH 300 0
DWIDTH 5 0
BBX 5 13 1 0
BITMAP
C0
C0
C0
C0
C0
C0
C0
C0
C0
C0
C0
F0
78
ENDCHAR
STARTCHAR 006D
ENCODING 109
SWIDTH 900 0
DWIDTH 15 0
BBX 13 9 1 0
BITMAP
FCE0
FFF0
C718
C218
C218
C218
C218
C218
C218
ENDCHAR
STARTCHAR 006E
ENCODING 110
SWIDTH 600 0
DWIDTH 10 0
BBX 8 9 1 0
BITMAP
DC
FE
C3
C3
C3
C3
C3
C3
C3
ENDCHAR
STARTCHAR 006F
ENCODING 111
SWIDTH 540 0
DWIDTH 9 0
BBX 8 8 1 0
BITMAP
7C
C6
83
83
83
C3
7E
3C
ENDCHAR
STARTCHAR 0070
ENCODING 112
SWIDTH 600 0
DWIDTH 10 0
BBX 8 13 1 -4
BITMAP
DE
E7
C3
C1
C1
C1
C3
FE
DC
C0
C0
C0
C0
ENDCHAR
STARTCHAR 0071
ENCODING 113
SWIDTH 600 0
DWIDTH 10 0
BBX 8 13 1 -4
BITMAP
3B
FF
C3
83
83
83
C3
FF
3B
03
03
03
03
ENDCHAR
STARTCHAR 0072
ENCODING 114
SWIDTH 420 0
DWIDTH 7 0
BBX 6 9 1 0
BITMAP
DC
F8
C0
C0
C0
C0
C0
C0
C0
ENDCHAR
STARTCHAR 0073
ENCODING 115
SWIDTH 480 0
DWIDTH 8 0
BBX 6 9 1 0
BITMAP
78
CC
C0
E0
78
0C
04
CC
78
ENDCHAR
STARTCHAR 0074
ENCODING 116
SWIDTH 360 0
DWIDTH 6 0
BBX 6 12 0 0
BITMAP
60
60
60
F8
60
60
60
60
60
60
38
3C
ENDCHAR
STARTCHAR 0075
ENCODING 117
SWIDTH 600 0
DWIDTH 10 0
BBX 8 9 1 0
BITMAP
C3
C3
C3
C3
C3
C3
C3
7F
3B
ENDCHAR
STARTCHAR 0076
ENCODING 118
SWIDTH 480 0
DWIDTH 8 0
BBX 8 9 0 0
BITMAP
C3
43
62
66
26
34
3C
1C
18
ENDCHAR
STARTCHAR 0077
ENCODING 119
SWIDTH 720 0
DWIDTH 12 0
BBX 12 9 0 0
BITMAP
CC30
C420
6660
6660
6660
3FC0
3FC0
39C0
1980
ENDCHAR
STARTCHAR 0078
ENCODING 120
SWIDTH 540 0
DWIDTH 9 0
BBX 9 9 0 0
BITMAP
C380
6300
3600
3C00
1800
3C00
3600
6300
C300
ENDCHAR
STARTCHAR 0079
ENCODING 121
SWIDTH 600 0
DWIDTH 10 0
BBX 8 13 1 -4
BITMAP
C3
C3
C3
C3
C3
C3
C3
7F
3B
03
03
7E
7C
ENDCHAR
STARTCHAR 007A
ENCODING 122
SWIDTH 540 0
DWIDTH 9 0
BBX 7 9 1 0
BITMAP
FE
06
0C
18
30
30
60
C0
FE
ENDCHAR
STARTCHAR 007B
ENCODING 123
SWIDTH 360 0
DWIDTH 6 0
BBX 4 19 1 -5
BITMAP
30
60
40
40
40
40
40
40
40
80
C0
40
40
40
40
40
40
40
70
ENDCHAR
STARTCHAR 007C
ENCODING 124
SWIDTH 300 0
DWIDTH 5 0
BBX 1 15 2 -2
BITMAP
80
80
80
80
80
80
80
80
80
80
80
80
80
80
80
ENDCHAR
STARTCHAR 007D
ENCODING 125
SWIDTH 360 0
DWIDTH 6 0
BBX 4 19 1 -5
BITMAP
C0
40
60
60
60
60
60
60
60
30
60
60
60
60
60
60
60
40
C0
ENDCHAR
STARTCHAR 007E
ENCODING 126
SWIDTH 540 0
DWIDTH 9 0
BBX 8 3 1 3
BITMAP
61
93
8E
ENDCHAR
STARTCHAR 00A1
ENCODING 161
SWIDTH 300 0
DWIDTH 5 0
BBX 2 13 1 -4
BITMAP
40
C0
00
00
40
40
40
40
40
40
40
40
40
ENDCHAR
STARTCHAR 00A2
ENCODING 162
SWIDTH 540 0
DWIDTH 9 0
BBX 7 12 1 0
BITMAP
18
18
7E
62
C0
80
80
C0
62
7E
18
18
ENDCHAR
STARTCHAR 00A3
ENCODING 163
SWIDTH 600 0
DWIDTH 10 0
BBX 10 13 0 0
BITMAP
0E00
1B80
3080
2000
2000
2000
FC00
2000
2000
2000
2000
2000
3FC0
ENDCHAR
STARTCHAR 00A4
ENCODING 164
SWIDTH 600 0
DWIDTH 10 0
BBX 8 7 1 2
BITMAP
FF
66
C3
C3
C3
62
FF
ENDCHAR
STARTCHAR 00A5
ENCODING 165
SWIDTH 660 0
DWIDTH 11 0
BBX 9 13 1 0
BITMAP
8080
C180
6300
2300
3600
1C00
0C00
FF80
0800
0800
FF80
0800
0800
ENDCHAR
STARTCHAR 00A6
ENCODING 166
SWIDTH 300 0
DWIDTH 5 0
BBX 1 15 2 -2
BITMAP
80
80
80
80
80
80
00
00
00
80
80
80
80
80
80
ENDCHAR
STARTCHAR 00A7
ENCODING 167
SWIDTH 600 0
DWIDTH 10 0
BBX 8 13 1 0
BITMAP
3E
62
40
40
78
4E
41
39
0F
01
01
E3
3E
ENDCHAR
STARTCHAR 00A8
ENCODING 168
SWIDTH 60 0
DWIDTH 1 0
BBX 5 2 1 10
BITMAP
D8
D8
ENDCHAR
STARTCHAR 00A9
ENCODING 169
SWIDTH 900 0
DWIDTH 15 0
BBX 13 13 1 0
BITMAP
0F80
3040
4020
C710
8818
9008
9008
9008
8818
C710
4020
3040
0F80
ENDCHAR
STARTCHAR 00AA
ENCODING 170
SWIDTH 420 0
DWIDTH 7 0
BBX 6 5 0 8
BITMAP
3C
44
84
44
3C
ENDCHAR
STARTCHAR 00AB
ENCODING 171
SWIDTH 660 0
DWIDTH 11 0
BBX 7 6 2 2
BITMAP
26
6C
D8
D8
4C
26
ENDCHAR
STARTCHAR 00AC
ENCODING 172
SWIDTH 780 0
DWIDTH 13 0
BBX 11 5 1 2
BITMAP
FFE0
0060
0060
0060
0060
ENDCHAR
STARTCHAR 00AD
ENCODING 173
SWIDTH 600 0
DWIDTH 10 0
BBX 6 1 1 4
BITMAP
FC
ENDCHAR
STARTCHAR 00AE
ENCODING 174
SWIDTH 900 0
DWIDTH 15 0
BBX 13 13 1 0
BITMAP
0F80
3040
4020
CF10
8898
8888
8F08
8908
8910
C890
4020
3040
0F80
ENDCHAR
STARTCHAR 00AF
ENCODING 175
SWIDTH 60 0
DWIDTH 1 0
BBX 6 1 0 10
BITMAP
FC
ENDCHAR
STARTCHAR 00B0
ENCODING 176
SWIDTH 480 0
DWIDTH 8 0
BBX 4 5 2 8
BITMAP
60
90
90
90
60
ENDCHAR
STARTCHAR 00B1
ENCODING 177
SWIDTH 780 0
DWIDTH 13 0
BBX 11 10 1 0
BITMAP
0400
0400
0400
FFE0
0400
0400
0400
0000
0000
FFE0
ENDCHAR
STARTCHAR 00B2
ENCODING 178
SWIDTH 360 0
DWIDTH 6 0
BBX 4 7 1 6
BITMAP
60
90
10
20
40
C0
F0
ENDCHAR
STARTCHAR 00B3
ENCODING 179
SWIDTH 360 0
DWIDTH 6 0
BBX 4 7 1 6
BITMAP
60
90
10
60
10
90
60
ENDCHAR
STARTCHAR 00B4
ENCODING 180
SWIDTH 60 0
DWIDTH 1 0
BBX 3 3 0 10
BITMAP
20
60
C0
ENDCHAR
STARTCHAR 00B5
ENCODING 181
SWIDTH 600 0
DWIDTH 10 0
BBX 8 13 1 -4
BITMAP
C3
C3
C3
C3
C3
C3
C3
FF
FB
C0
C0
C0
C0
ENDCHAR
STARTCHAR 00B6
ENCODING 182
SWIDTH 600 0
DWIDTH 10 0
BBX 6 15 2 -2
BITMAP
74
F4
F4
F4
F4
74
14
14
14
14
14
14
14
14
14
ENDCHAR
STARTCHAR 00B7
ENCODING 183
SWIDTH 300 0
DWIDTH 5 0
BBX 2 2 1 5
BITMAP
C0
40
ENDCHAR
STARTCHAR 00B8
ENCODING 184
SWIDTH 60 0
DWIDTH 1 0
BBX 3 4 1 -4
BITMAP
C0
E0
20
E0
ENDCHAR
STARTCHAR 00B9
ENCODING 185
SWIDTH 240 0
DWIDTH 4 0
BBX 2 6 0 7
BITMAP
C0
40
40
40
40
40
ENDCHAR
STARTCHAR 00BA
ENCODING 186
SWIDTH 360 0
DWIDTH 6 0
BBX 6 6 0 7
BITMAP
38
4C
84
84
4C
38
ENDCHAR
STARTCHAR 00BB
ENCODING 187
SWIDTH 660 0
DWIDTH 11 0
BBX 7 6 2 2
BITMAP
D8
4C
24
26
6C
D8
ENDCHAR
STARTCHAR 00BF
ENCODING 191
SWIDTH 540 0
DWIDTH 9 0
BBX 7 13 1 -4
BITMAP
10
18
00
00
10
10
30
E0
C0
82
C2
6E
3C
ENDCHAR
STARTCHAR 00C0
ENCODING 192
SWIDTH 720 0
DWIDTH 12 0
BBX 12 17 0 0
BITMAP
0C00
0400
0600
0000
0600
0700
0F00
0D00
1980
1980
18C0
30C0
3040
7FE0
6060
6030
C030
ENDCHAR
STARTCHAR 00C1
ENCODING 193
SWIDTH 720 0
DWIDTH 12 0
BBX 12 17 0 0
BITMAP
0180
0300
0200
0000
0600
0700
0F00
0D00
1980
1980
18C0
30C0
3040
7FE0
6060
6030
C030
ENDCHAR
STARTCHAR 00C2
ENCODING 194
SWIDTH 720 0
DWIDTH 12 0
BBX 12 17 0 0
BITMAP
0600
0F00
0980
0000
0600
0700
0F00
0D00
1980
1980
18C0
30C0
3040
7FE0
6060
6030
C030
ENDCHAR
STARTCHAR 00C3
ENCODING 195
SWIDTH 720 0
DWIDTH 12 0
BBX 12 17 0 0
BITMAP
0C00
1E80
1380
0800
0600
0700
0F00
0D00
1980
1980
18C0
30C0
3040
7FE0
6060
6030
C030
ENDCHAR
STARTCHAR 00C4
ENCODING 196
SWIDTH 720 0
DWIDTH 12 0
BBX 12 16 0 0
BITMAP
0D80
0D80
0000
0600
0700
0F00
0D00
1980
1980
18C0
30C0
3040
7FE0
6060
6030
C030
ENDCHAR
STARTCHAR 00C5
ENCODING 197
SWIDTH 720 0
DWIDTH 12 0
BBX 12 16 0 0
BITMAP
0600
0900
0900
0600
0700
0F00
0D00
1980
1980
18C0
30C0
3040
7FE0
6060
6030
C030
ENDCHAR
STARTCHAR 00C6
ENCODING 198
SWIDTH 900 0
DWIDTH 15 0
BBX 14 13 0 0
BITMAP
07FC
07FC
0D80
0D80
1980
1980
19FC
3180
3180
7F80
6180
6180
C1FC
ENDCHAR
STARTCHAR 00C7
ENCODING 199
SWIDTH 660 0
DWIDTH 11 0
BBX 9 17 1 -4
BITMAP
0F00
3F80
6080
C000
C000
8000
8000
8000
C000
C000
6080
3F80
1F00
0400
0700
0100
0600
ENDCHAR
STARTCHAR 00C8
ENCODING 200
SWIDTH 540 0
DWIDTH 9 0
BBX 7 17 1 0
BITMAP
60
30
10
00
FE
FE
C0
C0
C0
FE
FE
C0
C0
C0
C0
FE
FE
ENDCHAR
STARTCHAR 00C9
ENCODING 201
SWIDTH 540 0
DWIDTH 9 0
BBX 7 17 1 0
BITMAP
0C
08
18
00
FE
FE
C0
C0
C0
FE
FE
C0
C0
C0
C0
FE
FE
ENDCHAR
STARTCHAR 00CA
ENCODING 202
SWIDTH 540 0
DWIDTH 9 0
BBX 7 17 1 0
BITMAP
18
28
64
00
FE
FE
C0
C0
C0
FE
FE
C0
C0
C0
C0
FE
FE
ENDCHAR
STARTCHAR 00CB
ENCODING 203
SWIDTH 540 0
DWIDTH 9 0
BBX 7 16 1 0
BITMAP
6C
6C
00
FE
FE
C0
C0
C0
FE
FE
C0
C0
C0
C0
FE
FE
ENDCHAR
STARTCHAR 00CC
ENCODING 204
SWIDTH 240 0
DWIDTH 4 0
BBX 3 17 0 0
BITMAP
80
C0
60
00
60
60
60
60
60
60
60
60
60
60
60
60
60
ENDCHAR
STARTCHAR 00CD
ENCODING 205
SWIDTH 240 0
DWIDTH 4 0
BBX 3 17 1 0
BITMAP
20
60
C0
00
C0
C0
C0
C0
C0
C0
C0
C0
C0
C0
C0
C0
C0
ENDCHAR
STARTCHAR 00CE
ENCODING 206
SWIDTH 240 0
DWIDTH 4 0
BBX 4 17 0 0
BITMAP
60
F0
90
00
60
60
60
60
60
60
60
60
60
60
60
60
60
ENDCHAR
STARTCHAR 00CF
ENCODING 207
SWIDTH 240 0
DWIDTH 4 0
BBX 6 16 -1 0
BITMAP
CC
48
00
30
30
30
30
30
30
30
30
30
30
30
30
30
ENDCHAR
STARTCHAR 00D0
ENCODING 208
SWIDTH 720 0
DWIDTH 12 0
BBX 11 13 0 0
BITMAP
7E00
7F80
60C0
60C0
6060
6060
F860
6060
6060
60C0
60C0
7F80
7E00
ENDCHAR
STARTCHAR 00D1
ENCODING 209
SWIDTH 780 0
DWIDTH 13 0
BBX 11 17 1 0
BITMAP
1D00
1500
1700
0000
C060
E060
F060
F060
D860
CC60
CE60
C660
C360
C1E0
C1E0
C0E0
C060
ENDCHAR
STARTCHAR 00D2
ENCODING 210
SWIDTH 840 0
DWIDTH 14 0
BBX 12 17 1 0
BITMAP
1800
0C00
0400
0000
0F00
3FC0
6060
C020
C030
8030
8030
8030
C030
C020
6060
3FC0
0F00
ENDCHAR
STARTCHAR 00D3
ENCODING 211
SWIDTH 840 0
DWIDTH 14 0
BBX 12 17 1 0
BITMAP
0100
0300
0600
0000
0F00
3FC0
6060
C020
C030
8030
8030
8030
C030
C020
6060
3FC0
0F00
ENDCHAR
STARTCHAR 00D4
ENCODING 212
SWIDTH 840 0
DWIDTH 14 0
BBX 12 17 1 0
BITMAP
0600
0F00
0900
1000
0F00
3FC0
6060
C020
C030
8030
8030
8030
C030
C020
6060
3FC0
0F00
ENDCHAR
STARTCHAR 00D5
ENCODING 213
SWIDTH 840 0
DWIDTH 14 0
BBX 12 17 1 0
BITMAP
0C80
1680
1300
0000
0F00
3FC0
6060
C020
C030
8030
8030
8030
C030
C020
6060
3FC0
0F00
ENDCHAR
STARTCHAR 00D6
ENCODING 214
SWIDTH 840 0
DWIDTH 14 0
BBX 12 16 1 0
BITMAP
1900
1900
0000
0F00
3FC0
6060
C020
C030
8030
8030
8030
C030
C020
6060
3FC0
0F00
ENDCHAR
STARTCHAR 00D7
ENCODING 215
SWIDTH 720 0
DWIDTH 12 0
BBX 9 8 2 1
BITMAP
0100
4380
2600
1C00
1800
3400
6200
C100
ENDCHAR
STARTCHAR 00D8
ENCODING 216
SWIDTH 840 0
DWIDTH 14 0
BBX 12 13 1 0
BITMAP
0F60
3FC0
60E0
C1B0
C130
8230
8630
8430
C830
D820
7060
3FC0
7F00
ENDCHAR
STARTCHAR 00D9
ENCODING 217
SWIDTH 720 0
DWIDTH 12 0
BBX 10 17 1 0
BITMAP
1000
1800
0C00
0000
C0C0
C0C0
C0C0
C0C0
C0C0
C0C0
C0C0
C0C0
C0C0
C0C0
6180
7F80
1E00
ENDCHAR
STARTCHAR 00DA
ENCODING 218
SWIDTH 720 0
DWIDTH 12 0
BBX 10 17 1 0
BITMAP
0200
0600
0C00
0000
C0C0
C0C0
C0C0
C0C0
C0C0
C0C0
C0C0
C0C0
C0C0
C0C0
6180
7F80
1E00
ENDCHAR
STARTCHAR 00DB
ENCODING 219
SWIDTH 720 0
DWIDTH 12 0
BBX 10 17 1 0
BITMAP
0C00
1E00
1200
0000
C0C0
C0C0
C0C0
C0C0
C0C0
C0C0
C0C0
C0C0
C0C0
C0C0
6180
7F80
1E00
ENDCHAR
STARTCHAR 00DC
ENCODING 220
SWIDTH 720 0
DWIDTH 12 0
BBX 10 16 1 0
BITMAP
1300
1300
0000
C0C0
C0C0
C0C0
C0C0
C0C0
C0C0
C0C0
C0C0
C0C0
C0C0
6180
7F80
1E00
ENDCHAR
STARTCHAR 00DD
ENCODING 221
SWIDTH 660 0
DWIDTH 11 0
BBX 11 17 0 0
BITMAP
0300
0600
0400
0000
C0E0
60C0
3180
3180
1B00
0E00
0E00
0400
0400
0400
0400
0400
0400
ENDCHAR
STARTCHAR 00DE
ENCODING 222
SWIDTH 600 0
DWIDTH 10 0
BBX 8 13 1 0
BITMAP
C0
C0
FE
FF
C1
C1
C1
C7
FE
C0
C0
C0
C0
ENDCHAR
STARTCHAR 00DF
ENCODING 223
SWIDTH 660 0
DWIDTH 11 0
BBX 9 13 1 0
BITMAP
3E00
7F00
4300
C100
C100
C300
CE00
C300
C180
C180
C180
DF80
CE00
ENDCHAR
STARTCHAR 00E0
ENCODING 224
SWIDTH 540 0
DWIDTH 9 0
BBX 7 13 1 0
BITMAP
60
20
10
00
78
EC
06
06
7E
C6
86
FE
76
ENDCHAR
STARTCHAR 00E1
ENCODING 225
SWIDTH 540 0
DWIDTH 9 0
BBX 7 13 1 0
BITMAP
0C
08
10
00
78
EC
06
06
7E
C6
86
FE
76
ENDCHAR
STARTCHAR 00E2
ENCODING 226
SWIDTH 540 0
DWIDTH 9 0
BBX 7 13 1 0
BITMAP
38
28
6C
00
78
EC
06
06
7E
C6
86
CE
76
ENDCHAR
STARTCHAR 00E3
ENCODING 227
SWIDTH 540 0
DWIDTH 9 0
BBX 7 12 1 0
BITMAP
70
54
5C
00
FC
C6
06
7E
C6
86
CE
76
ENDCHAR
STARTCHAR 00E4
ENCODING 228
SWIDTH 540 0
DWIDTH 9 0
BBX 7 12 1 0
BITMAP
6C
6C
00
00
FC
C6
06
7E
C6
86
CE
76
ENDCHAR
STARTCHAR 00E5
ENCODING 229
SWIDTH 540 0
DWIDTH 9 0
BBX 7 13 1 0
BITMAP
38
28
28
38
00
FC
C6
06
7E
C6
86
CE
76
ENDCHAR
STARTCHAR 00E6
ENCODING 230
SWIDTH 840 0
DWIDTH 14 0
BBX 13 8 1 0
BITMAP
FFF0
C610
0618
7FF8
CE00
8610
FFF0
71E0
ENDCHAR
STARTCHAR 00E7
ENCODING 231
SWIDTH 420 0
DWIDTH 7 0
BBX 6 12 1 -4
BITMAP
7C
C4
80
80
80
C0
C4
7C
10
38
04
38
ENDCHAR
STARTCHAR 00E8
ENCODING 232
SWIDTH 540 0
DWIDTH 9 0
BBX 8 13 1 0
BITMAP
60
30
10
00
3C
6E
C2
82
FF
80
C0
EE
3C
ENDCHAR
STARTCHAR 00E9
ENCODING 233
SWIDTH 540 0
DWIDTH 9 0
BBX 8 13 1 0
BITMAP
0C
08
18
00
3C
6E
C2
82
FF
80
C0
EE
3C
ENDCHAR
STARTCHAR 00EA
ENCODING 234
SWIDTH 540 0
DWIDTH 9 0
BBX 8 13 1 0
BITMAP
38
28
64
00
3C
6E
C2
82
FF
80
C0
EE
3C
ENDCHAR
STARTCHAR 00EB
ENCODING 235
SWIDTH 540 0
DWIDTH 9 0
BBX 8 12 1 0
BITMAP
6C
6C
00
00
7C
C6
82
FF
80
C0
EE
3C
ENDCHAR
STARTCHAR 00EC
ENCODING 236
SWIDTH 240 0
DWIDTH 4 0
BBX 3 13 0 0
BITMAP
80
C0
60
00
60
60
60
60
60
60
60
60
60
ENDCHAR
STARTCHAR 00ED
ENCODING 237
SWIDTH 240 0
DWIDTH 4 0
BBX 3 13 1 0
BITMAP
20
60
C0
00
C0
C0
C0
C0
C0
C0
C0
C0
C0
ENDCHAR
STARTCHAR 00EE
ENCODING 238
SWIDTH 240 0
DWIDTH 4 0
BBX 5 13 -1 0
BITMAP
30
78
48
80
30
30
30
30
30
30
30
30
30
ENDCHAR
STARTCHAR 00EF
ENCODING 239
SWIDTH 240 0
DWIDTH 4 0
BBX 6 12 -1 0
BITMAP
CC
48
00
30
30
30
30
30
30
30
30
30
ENDCHAR
STARTCHAR 00F0
ENCODING 240
SWIDTH 600 0
DWIDTH 10 0
BBX 9 13 1 0
BITMAP
3400
1C00
0E00
1200
0300
7F00
C380
C180
8180
8180
C300
7F00
3C00
ENDCHAR
STARTCHAR 00F1
ENCODING 241
SWIDTH 600 0
DWIDTH 10 0
BBX 8 13 1 0
BITMAP
30
52
4C
00
DC
FE
C3
C3
C3
C3
C3
C3
C3
ENDCHAR
STARTCHAR 00F2
ENCODING 242
SWIDTH 540 0
DWIDTH 9 0
BBX 8 13 1 0
BITMAP
60
30
10
00
3C
7E
C3
83
83
83
C3
7E
3C
ENDCHAR
STARTCHAR 00F3
ENCODING 243
SWIDTH 540 0
DWIDTH 9 0
BBX 8 13 1 0
BITMAP
0C
08
18
00
3C
7E
C3
83
83
83
C3
7E
3C
ENDCHAR
STARTCHAR 00F4
ENCODING 244
SWIDTH 540 0
DWIDTH 9 0
BBX 8 13 1 0
BITMAP
18
28
64
00
3C
7E
C3
83
83
83
C3
7E
3C
ENDCHAR
STARTCHAR 00F5
ENCODING 245
SWIDTH 540 0
DWIDTH 9 0
BBX 8 12 1 0
BITMAP
76
56
4C
00
7C
C6
83
83
83
C3
7E
3C
ENDCHAR
STARTCHAR 00F6
ENCODING 246
SWIDTH 540 0
DWIDTH 9 0
BBX 8 12 1 0
BITMAP
6C
6C
00
00
7C
C6
83
83
83
C3
7E
3C
ENDCHAR
STARTCHAR 00F7
ENCODING 247
SWIDTH 720 0
DWIDTH 12 0
BBX 10 8 1 1
BITMAP
0C00
0C00
0000
0000
FFC0
0000
0C00
0C00
ENDCHAR
STARTCHAR 00F8
ENCODING 248
SWIDTH 540 0
DWIDTH 9 0
BBX 8 9 1 0
BITMAP
02
7E
C6
8B
93
93
E3
FE
FC
ENDCHAR
STARTCHAR 00F9
ENCODING 249
SWIDTH 600 0
DWIDTH 10 0
BBX 8 13 1 0
BITMAP
20
30
18
00
C3
C3
C3
C3
C3
C3
C3
7F
3B
ENDCHAR
STARTCHAR 00FA
ENCODING 250
SWIDTH 600 0
DWIDTH 10 0
BBX 8 13 1 0
BITMAP
04
0C
18
00
C3
C3
C3
C3
C3
C3
C3
7F
3B
ENDCHAR
STARTCHAR 00FB
ENCODING 251
SWIDTH 600 0
DWIDTH 10 0
BBX 8 13 1 0
BITMAP
18
3C
24
00
C3
C3
C3
C3
C3
C3
C3
7F
3B
ENDCHAR
STARTCHAR 00FC
ENCODING 252
SWIDTH 600 0
DWIDTH 10 0
BBX 8 12 1 0
BITMAP
64
64
00
C3
C3
C3
C3
C3
C3
C3
7F
3B
ENDCHAR
STARTCHAR 00FD
ENCODING 253
SWIDTH 600 0
DWIDTH 10 0
BBX 8 17 1 -4
BITMAP
04
0C
18
00
C3
C3
C3
C3
C3
C3
C3
7F
3B
03
03
7E
7C
ENDCHAR
STARTCHAR 00FE
ENCODING 254
SWIDTH 660 0
DWIDTH 11 0
BBX 9 17 1 -4
BITMAP
C000
C000
C000
C000
DE00
FF00
E180
C180
C080
C180
E180
FF00
DE00
C000
C000
C000
C000
ENDCHAR
STARTCHAR 00FF
ENCODING 255
SWIDTH 600 0
DWIDTH 10 0
BBX 8 16 1 -4
BITMAP
64
64
00
C3
C3
C3
C3
C3
C3
C3
7F
3B
03
03
7E
7C
ENDCHAR
STARTCHAR 0100
ENCODING 256
SWIDTH 720 0
DWIDTH 12 0
BBX 12 16 0 0
BITMAP
1F80
0000
0000
0600
0700
0F00
0D00
1980
1980
18C0
30C0
3040
7FE0
6060
6030
C030
ENDCHAR
STARTCHAR 0101
ENCODING 257
SWIDTH 540 0
DWIDTH 9 0
BBX 7 11 1 0
BITMAP
7C
00
00
FC
C6
06
7E
C6
86
FE
76
ENDCHAR
STARTCHAR 0102
ENCODING 258
SWIDTH 720 0
DWIDTH 12 0
BBX 12 17 0 0
BITMAP
1080
0880
0F00
0000
0600
0700
0F00
0D00
1980
1980
18C0
30C0
3040
7FE0
6060
6030
C030
ENDCHAR
STARTCHAR 0103
ENCODING 259
SWIDTH 540 0
DWIDTH 9 0
BBX 7 12 1 0
BITMAP
44
44
38
00
FC
C6
06
7E
C6
86
CE
76
ENDCHAR
STARTCHAR 0104
ENCODING 260
SWIDTH 720 0
DWIDTH 12 0
BBX 13 17 0 -4
BITMAP
0600
0700
0F00
0D00
1980
1980
18C0
30C0
3040
7FE0
6060
6030
C030
0020
0040
0048
0078
ENDCHAR
STARTCHAR 0105
ENCODING 261
SWIDTH 540 0
DWIDTH 9 0
BBX 7 12 1 -4
BITMAP
FC
C6
06
7E
C6
86
FE
76
0C
08
1A
0E
ENDCHAR
STARTCHAR 0106
ENCODING 262
SWIDTH 660 0
DWIDTH 11 0
BBX 9 17 1 0
BITMAP
0100
0300
0600
0000
0F00
3F80
6080
C000
C000
8000
8000
8000
C000
C000
6080
3F80
0F00
ENDCHAR
STARTCHAR 0107
ENCODING 263
SWIDTH 420 0
DWIDTH 7 0
BBX 6 13 1 0
BITMAP
0C
18
10
00
3C
EC
C0
80
80
80
C0
EC
3C
ENDCHAR
STARTCHAR 010A
ENCODING 266
SWIDTH 660 0
DWIDTH 11 0
BBX 9 16 1 0
BITMAP
0600
0600
0000
0F00
3F80
6080
C000
C000
8000
8000
8000
C000
C000
6080
3F80
0F00
ENDCHAR
STARTCHAR 010B
ENCODING 267
SWIDTH 420 0
DWIDTH 7 0
BBX 6 12 1 0
BITMAP
10
30
00
00
7C
C4
80
80
80
C0
EC
3C
ENDCHAR
STARTCHAR 010C
ENCODING 268
SWIDTH 660 0
DWIDTH 11 0
BBX 9 17 1 0
BITMAP
0900
0F00
0600
0000
0F00
3F80
6080
C000
C000
8000
8000
8000
C000
C000
6080
3F80
0F00
ENDCHAR
STARTCHAR 010D
ENCODING 269
SWIDTH 420 0
DWIDTH 7 0
BBX 6 13 1 0
BITMAP
6C
28
38
00
3C
EC
C0
80
80
80
C0
EC
3C
ENDCHAR
STARTCHAR 010E
ENCODING 270
SWIDTH 720 0
DWIDTH 12 0
BBX 10 17 1 0
BITMAP
6400
2800
1800
0000
FC00
FF00
C180
C180
C0C0
C0C0
C0C0
C0C0
C0C0
C180
C180
FF00
FC00
ENDCHAR
STARTCHAR 010F
ENCODING 271
SWIDTH 780 0
DWIDTH 13 0
BBX 12 13 1 0
BITMAP
0330
0330
0310
0310
3B20
FF00
C300
8300
8300
8300
C300
FF00
3B00
ENDCHAR
STARTCHAR 0110
ENCODING 272
SWIDTH 720 0
DWIDTH 12 0
BBX 11 13 0 0
BITMAP
7E00
7F80
60C0
60C0
6060
6060
F860
6060
6060
60C0
60C0
7F80
7E00
ENDCHAR
STARTCHAR 0111
ENCODING 273
SWIDTH 600 0
DWIDTH 10 0
BBX 9 13 1 0
BITMAP
0300
0300
0F80
0300
3B00
FF00
C300
8300
8300
8300
C300
FF00
3B00
ENDCHAR
STARTCHAR 0112
ENCODING 274
SWIDTH 540 0
DWIDTH 9 0
BBX 7 16 1 0
BITMAP
7C
00
00
FE
FE
C0
C0
C0
FE
FE
C0
C0
C0
C0
FE
FE
ENDCHAR
STARTCHAR 0113
ENCODING 275
SWIDTH 540 0
DWIDTH 9 0
BBX 8 11 1 0
BITMAP
7C
00
00
7C
C6
82
FF
80
C0
EE
3C
ENDCHAR
STARTCHAR 0116
ENCODING 278
SWIDTH 540 0
DWIDTH 9 0
BBX 7 16 1 0
BITMAP
18
18
00
FE
FE
C0
C0
C0
FE
FE
C0
C0
C0
C0
FE
FE
ENDCHAR
STARTCHAR 0117
ENCODING 279
SWIDTH 540 0
DWIDTH 9 0
BBX 8 12 1 0
BITMAP
18
18
00
00
7C
C6
82
FF
80
C0
EE
3C
ENDCHAR
STARTCHAR 0118
ENCODING 280
SWIDTH 540 0
DWIDTH 9 0
BBX 8 17 1 -4
BITMAP
FE
FE
C0
C0
C0
FE
FE
C0
C0
C0
C0
FE
FE
04
08
09
0F
ENDCHAR
STARTCHAR 0119
ENCODING 281
SWIDTH 540 0
DWIDTH 9 0
BBX 8 11 1 -3
BITMAP
7C
C6
82
FF
80
C0
EE
3C
10
10
0E
ENDCHAR
STARTCHAR 011A
ENCODING 282
SWIDTH 540 0
DWIDTH 9 0
BBX 7 17 1 0
BITMAP
64
28
18
00
FE
FE
C0
C0
C0
FE
FE
C0
C0
C0
C0
FE
FE
ENDCHAR
STARTCHAR 011B
ENCODING 283
SWIDTH 540 0
DWIDTH 9 0
BBX 8 13 1 0
BITMAP
64
28
38
00
3C
6E
C2
82
FF
80
C0
EE
3C
ENDCHAR
STARTCHAR 011E
ENCODING 286
SWIDTH 720 0
DWIDTH 12 0
BBX 10 17 1 0
BITMAP
0880
0880
0700
0000
0F80
3FC0
7040
6000
C000
C000
C3C0
C3C0
C040
6040
7040
3FC0
0F80
ENDCHAR
STARTCHAR 011F
ENCODING 287
SWIDTH 600 0
DWIDTH 10 0
BBX 8 17 1 -4
BITMAP
46
44
3C
00
3B
FF
C3
83
83
83
C3
FF
3B
03
02
7E
3C
ENDCHAR
STARTCHAR 0120
ENCODING 288
SWIDTH 720 0
DWIDTH 12 0
BBX 10 16 1 0
BITMAP
0300
0200
0000
0F80
3FC0
7040
6000
C000
C000
C3C0
C3C0
C040
6040
7040
3FC0
0F80
ENDCHAR
STARTCHAR 0121
ENCODING 289
SWIDTH 600 0
DWIDTH 10 0
BBX 8 16 1 -4
BITMAP
18
18
00
3B
FF
C3
83
83
83
C3
FF
3B
03
02
7E
3C
ENDCHAR
STARTCHAR 0122
ENCODING 290
SWIDTH 720 0
DWIDTH 12 0
BBX 10 18 1 -5
BITMAP
0F80
3FC0
7040
6000
C000
C000
C3C0
C3C0
C040
6040
7040
3FC0
0F80
0000
0600
0300
0200
0400
ENDCHAR
STARTCHAR 0123
ENCODING 291
SWIDTH 600 0
DWIDTH 10 0
BBX 8 18 1 -4
BITMAP
08
10
18
18
00
3B
FF
C3
83
83
83
C3
FF
3B
03
02
7E
3C
ENDCHAR
STARTCHAR 0126
ENCODING 294
SWIDTH 720 0
DWIDTH 12 0
BBX 12 13 0 0
BITMAP
6060
6060
FFF0
6060
6060
7FE0
7FE0
6060
6060
6060
6060
6060
6060
ENDCHAR
STARTCHAR 0127
ENCODING 295
SWIDTH 600 0
DWIDTH 10 0
BBX 9 13 0 0
BITMAP
6000
6000
F800
6000
6E00
7F00
6180
6180
6180
6180
6180
6180
6180
ENDCHAR
STARTCHAR 0128
ENCODING 296
SWIDTH 240 0
DWIDTH 4 0
BBX 6 17 -1 0
BITMAP
64
B4
98
00
30
30
30
30
30
30
30
30
30
30
30
30
30
ENDCHAR
STARTCHAR 0129
ENCODING 297
SWIDTH 240 0
DWIDTH 4 0
BBX 6 13 -1 0
BITMAP
64
B4
98
00
30
30
30
30
30
30
30
30
30
ENDCHAR
STARTCHAR 012A
ENCODING 298
SWIDTH 240 0
DWIDTH 4 0
BBX 6 16 -1 0
BITMAP
FC
00
00
30
30
30
30
30
30
30
30
30
30
30
30
30
ENDCHAR
STARTCHAR 012B
ENCODING 299
SWIDTH 240 0
DWIDTH 4 0
BBX 6 12 -1 0
BITMAP
FC
00
00
30
30
30
30
30
30
30
30
30
ENDCHAR
STARTCHAR 012E
ENCODING 302
SWIDTH 240 0
DWIDTH 4 0
BBX 4 17 -1 -4
BITMAP
30
30
30
30
30
30
30
30
30
30
30
30
30
40
C0
D0
70
ENDCHAR
STARTCHAR 012F
ENCODING 303
SWIDTH 240 0
DWIDTH 4 0
BBX 4 16 -1 -4
BITMAP
30
30
00
30
30
30
30
30
30
30
30
30
40
C0
D0
70
ENDCHAR
STARTCHAR 0130
ENCODING 304
SWIDTH 240 0
DWIDTH 4 0
BBX 2 16 1 0
BITMAP
C0
C0
00
C0
C0
C0
C0
C0
C0
C0
C0
C0
C0
C0
C0
C0
ENDCHAR
STARTCHAR 0131
ENCODING 305
SWIDTH 240 0
DWIDTH 4 0
BBX 2 9 1 0
BITMAP
C0
C0
C0
C0
C0
C0
C0
C0
C0
ENDCHAR
STARTCHAR 0132
ENCODING 306
SWIDTH 600 0
DWIDTH 10 0
BBX 8 13 1 0
BITMAP
C3
C3
C3
C3
C3
C3
C3
C3
C3
C3
C3
CF
CE
ENDCHAR
STARTCHAR 0133
ENCODING 307
SWIDTH 540 0
DWIDTH 9 0
BBX 7 16 1 -4
BITMAP
C6
C6
00
C6
C6
C6
C6
C6
C6
C6
C6
C6
06
06
16
1C
ENDCHAR
STARTCHAR 0136
ENCODING 310
SWIDTH 600 0
DWIDTH 10 0
BBX 9 18 1 -5
BITMAP
C380
C700
CE00
DC00
D800
F000
F000
D800
CC00
C600
C300
C180
C080
0080
1800
1800
0800
1000
ENDCHAR
STARTCHAR 0137
ENCODING 311
SWIDTH 480 0
DWIDTH 8 0
BBX 7 18 1 -5
BITMAP
C0
C0
C0
C0
C6
CC
D8
F0
F0
D8
CC
CE
C6
02
30
30
10
20
ENDCHAR
STARTCHAR 0139
ENCODING 313
SWIDTH 480 0
DWIDTH 8 0
BBX 6 17 1 0
BITMAP
20
60
C0
00
C0
C0
C0
C0
C0
C0
C0
C0
C0
C0
C0
FC
FC
ENDCHAR
STARTCHAR 013A
ENCODING 314
SWIDTH 300 0
DWIDTH 5 0
BBX 5 17 1 0
BITMAP
20
60
C0
00
C0
C0
C0
C0
C0
C0
C0
C0
C0
C0
C0
F0
78
ENDCHAR
STARTCHAR 013B
ENCODING 315
SWIDTH 480 0
DWIDTH 8 0
BBX 6 18 1 -5
BITMAP
C0
C0
C0
C0
C0
C0
C0
C0
C0
C0
C0
FC
FC
00
30
30
10
20
ENDCHAR
STARTCHAR 013C
ENCODING 316
SWIDTH 300 0
DWIDTH 5 0
BBX 5 18 1 -5
BITMAP
C0
C0
C0
C0
C0
C0
C0
C0
C0
C0
C0
F0
78
00
30
30
20
20
ENDCHAR
STARTCHAR 013D
ENCODING 317
SWIDTH 480 0
DWIDTH 8 0
BBX 7 13 1 0
BITMAP
C4
CE
C2
C4
CC
C0
C0
C0
C0
C0
C0
FC
FC
ENDCHAR
STARTCHAR 013E
ENCODING 318
SWIDTH 360 0
DWIDTH 6 0
BBX 5 13 1 0
BITMAP
D8
D8
C8
C8
D0
C0
C0
C0
C0
C0
C0
F0
78
ENDCHAR
STARTCHAR 0140
ENCODING 320
SWIDTH 300 0
DWIDTH 5 0
BBX 5 13 1 0
BITMAP
C0
C0
C0
C0
C0
C0
F0
D0
C0
C0
C0
F0
78
ENDCHAR
STARTCHAR 0141
ENCODING 321
SWIDTH 480 0
DWIDTH 8 0
BBX 8 13 -1 0
BITMAP
30
30
30
30
3C
38
30
70
F0
30
30
3F
3F
ENDCHAR
STARTCHAR 0142
ENCODING 322
SWIDTH 300 0
DWIDTH 5 0
BBX 7 13 -1 0
BITMAP
30
30
30
30
3C
38
30
70
F0
30
30
3C
1E
ENDCHAR
STARTCHAR 0143
ENCODING 323
SWIDTH 780 0
DWIDTH 13 0
BBX 11 17 1 0
BITMAP
0300
0600
0400
0000
C060
E060
F060
F060
D860
CC60
CE60
C660
C360
C1E0
C1E0
C0E0
C060
ENDCHAR
STARTCHAR 0144
ENCODING 324
SWIDTH 600 0
DWIDTH 10 0
BBX 8 13 1 0
BITMAP
0C
0C
18
00
DC
FE
C3
C3
C3
C3
C3
C3
C3
ENDCHAR
STARTCHAR 0145
ENCODING 325
SWIDTH 780 0
DWIDTH 13 0
BBX 11 18 1 -5
BITMAP
C060
E060
F060
F060
D860
CC60
CE60
C660
C360
C1E0
C1E0
C0E0
C060
0000
0600
0600
0400
0400
ENDCHAR
STARTCHAR 0146
ENCODING 326
SWIDTH 600 0
DWIDTH 10 0
BBX 8 14 1 -5
BITMAP
DC
FE
C3
C3
C3
C3
C3
C3
C3
00
18
18
08
10
ENDCHAR
STARTCHAR 0147
ENCODING 327
SWIDTH 780 0
DWIDTH 13 0
BBX 11 17 1 0
BITMAP
1B00
0A00
0E00
0000
C060
E060
F060
F060
D860
CC60
CE60
C660
C360
C1E0
C1E0
C0E0
C060
ENDCHAR
STARTCHAR 0148
ENCODING 328
SWIDTH 600 0
DWIDTH 10 0
BBX 8 13 1 0
BITMAP
24
3C
18
00
DC
FE
C3
C3
C3
C3
C3
C3
C3
ENDCHAR
STARTCHAR 014A
ENCODING 330
SWIDTH 780 0
DWIDTH 13 0
BBX 11 16 1 -3
BITMAP
C060
E060
F060
F860
D860
CC60
C660
C760
C360
C1E0
C0E0
C0E0
C060
0060
0060
00C0
ENDCHAR
STARTCHAR 014B
ENCODING 331
SWIDTH 600 0
DWIDTH 10 0
BBX 8 12 1 -3
BITMAP
DC
FE
C3
C3
C3
C3
C3
C3
C3
03
03
06
ENDCHAR
STARTCHAR 014C
ENCODING 332
SWIDTH 840 0
DWIDTH 14 0
BBX 12 15 1 0
BITMAP
1F80
0000
0F00
3FC0
6060
C020
C030
8030
8030
8030
C030
C020
6060
3FC0
0F00
ENDCHAR
STARTCHAR 014D
ENCODING 333
SWIDTH 540 0
DWIDTH 9 0
BBX 8 11 1 0
BITMAP
7C
00
00
7C
C6
83
83
83
C3
7E
3C
ENDCHAR
STARTCHAR 0150
ENCODING 336
SWIDTH 840 0
DWIDTH 14 0
BBX 12 17 1 0
BITMAP
0340
06C0
0D80
0000
0F00
3FC0
6060
C020
C030
8030
8030
8030
C030
C020
6060
3FC0
0F00
ENDCHAR
STARTCHAR 0151
ENCODING 337
SWIDTH 540 0
DWIDTH 9 0
BBX 8 13 1 0
BITMAP
09
12
24
00
3C
7E
C3
83
83
83
C3
7E
3C
ENDCHAR
STARTCHAR 0152
ENCODING 338
SWIDTH 1260 0
DWIDTH 21 0
BBX 19 13 1 0
BITMAP
0F8FE0
1FEFE0
307800
603800
C01800
C01800
C01FC0
C01FC0
C01800
601800
703800
3DE800
0F8FE0
ENDCHAR
STARTCHAR 0153
ENCODING 339
SWIDTH 960 0
DWIDTH 16 0
BBX 14 8 1 0
BITMAP
7CF8
C78C
8304
83FC
8300
C308
7FDC
3CF0
ENDCHAR
STARTCHAR 0154
ENCODING 340
SWIDTH 600 0
DWIDTH 10 0
BBX 9 17 1 0
BITMAP
0600
0C00
1800
0000
FE00
FF00
C300
C100
C100
C300
FE00
CC00
CC00
C600
C200
C300
C180
ENDCHAR
STARTCHAR 0155
ENCODING 341
SWIDTH 420 0
DWIDTH 7 0
BBX 6 13 1 0
BITMAP
18
10
30
00
DC
F8
C0
C0
C0
C0
C0
C0
C0
ENDCHAR
STARTCHAR 0156
ENCODING 342
SWIDTH 600 0
DWIDTH 10 0
BBX 9 18 1 -5
BITMAP
FE00
FF00
C300
C100
C100
C300
FE00
CC00
CC00
C600
C200
C300
C180
0000
1800
1800
0800
1000
ENDCHAR
STARTCHAR 0157
ENCODING 343
SWIDTH 420 0
DWIDTH 7 0
BBX 6 14 1 -5
BITMAP
DC
F8
C0
C0
C0
C0
C0
C0
C0
00
C0
C0
40
80
ENDCHAR
STARTCHAR 0158
ENCODING 344
SWIDTH 600 0
DWIDTH 10 0
BBX 9 17 1 0
BITMAP
2400
3C00
1800
0000
FE00
FF00
C300
C100
C100
C300
FE00
CC00
CC00
C600
C200
C300
C180
ENDCHAR
STARTCHAR 0159
ENCODING 345
SWIDTH 420 0
DWIDTH 7 0
BBX 6 13 1 0
BITMAP
C8
50
70
00
DC
F8
C0
C0
C0
C0
C0
C0
C0
ENDCHAR
STARTCHAR 015A
ENCODING 346
SWIDTH 600 0
DWIDTH 10 0
BBX 9 17 1 0
BITMAP
0600
0600
0C00
0000
3E00
7F00
C100
C000
6000
7800
1E00
0300
0180
0180
C180
FF00
3E00
ENDCHAR
STARTCHAR 015B
ENCODING 347
SWIDTH 480 0
DWIDTH 8 0
BBX 6 13 1 0
BITMAP
08
18
30
00
78
CC
C0
E0
78
0C
04
CC
78
ENDCHAR
STARTCHAR 015E
ENCODING 350
SWIDTH 600 0
DWIDTH 10 0
BBX 9 17 1 -4
BITMAP
3E00
7F00
C100
C000
6000
7800
1E00
0300
0180
0180
C180
FF00
3E00
1000
1C00
0400
1C00
ENDCHAR
STARTCHAR 015F
ENCODING 351
SWIDTH 480 0
DWIDTH 8 0
BBX 6 13 1 -4
BITMAP
78
CC
C0
E0
78
0C
04
CC
78
20
38
08
38
ENDCHAR
STARTCHAR 0160
ENCODING 352
SWIDTH 600 0
DWIDTH 10 0
BBX 9 17 1 0
BITMAP
3200
1600
0C00
0000
3E00
7F00
C100
C000
6000
7800
1E00
0300
0180
0180
C180
FF00
3E00
ENDCHAR
STARTCHAR 0161
ENCODING 353
SWIDTH 480 0
DWIDTH 8 0
BBX 6 13 1 0
BITMAP
48
78
30
00
78
CC
C0
E0
78
0C
04
CC
78
ENDCHAR
STARTCHAR 0162
ENCODING 354
SWIDTH 540 0
DWIDTH 9 0
BBX 9 17 0 -4
BITMAP
FF80
FF80
0800
0800
0800
0800
0800
0800
0800
0800
0800
0800
0800
0800
1C00
0200
1C00
ENDCHAR
STARTCHAR 0163
ENCODING 355
SWIDTH 360 0
DWIDTH 6 0
BBX 6 16 0 -4
BITMAP
60
60
60
F8
60
60
60
60
60
60
3C
10
18
04
24
18
ENDCHAR
STARTCHAR 0164
ENCODING 356
SWIDTH 540 0
DWIDTH 9 0
BBX 9 17 0 0
BITMAP
3200
1400
1C00
0000
FF80
FF80
0800
0800
0800
0800
0800
0800
0800
0800
0800
0800
0800
ENDCHAR
STARTCHAR 0165
ENCODING 357
SWIDTH 360 0
DWIDTH 6 0
BBX 7 14 0 0
BITMAP
0C
0E
64
64
68
F8
60
60
60
60
60
60
38
3C
ENDCHAR
STARTCHAR 0166
ENCODING 358
SWIDTH 540 0
DWIDTH 9 0
BBX 9 13 0 0
BITMAP
FF80
FF80
0800
0800
0800
0800
3E00
0800
0800
0800
0800
0800
0800
ENDCHAR
STARTCHAR 0167
ENCODING 359
SWIDTH 360 0
DWIDTH 6 0
BBX 6 12 0 0
BITMAP
60
60
60
F8
60
60
60
FC
60
60
38
3C
ENDCHAR
STARTCHAR 0168
ENCODING 360
SWIDTH 720 0
DWIDTH 12 0
BBX 10 17 1 0
BITMAP
1900
2D00
2600
0000
C0C0
C0C0
C0C0
C0C0
C0C0
C0C0
C0C0
C0C0
C0C0
C0C0
6180
7F80
1E00
ENDCHAR
STARTCHAR 016A
ENCODING 362
SWIDTH 720 0
DWIDTH 12 0
BBX 10 16 1 0
BITMAP
3F00
0000
0000
C0C0
C0C0
C0C0
C0C0
C0C0
C0C0
C0C0
C0C0
C0C0
C0C0
6180
7F80
1E00
ENDCHAR
STARTCHAR 016B
ENCODING 363
SWIDTH 600 0
DWIDTH 10 0
BBX 8 12 1 0
BITMAP
7E
00
00
C3
C3
C3
C3
C3
C3
C3
7F
3B
ENDCHAR
STARTCHAR 016E
ENCODING 366
SWIDTH 720 0
DWIDTH 12 0
BBX 10 17 1 0
BITMAP
0C00
1200
0C00
0000
C0C0
C0C0
C0C0
C0C0
C0C0
C0C0
C0C0
C0C0
C0C0
C0C0
6180
7F80
1E00
ENDCHAR
STARTCHAR 016F
ENCODING 367
SWIDTH 600 0
DWIDTH 10 0
BBX 8 13 1 0
BITMAP
18
24
18
00
C3
C3
C3
C3
C3
C3
C3
7F
3B
ENDCHAR
STARTCHAR 0170
ENCODING 368
SWIDTH 720 0
DWIDTH 12 0
BBX 10 17 1 0
BITMAP
06C0
0D80
1B00
0000
C0C0
C0C0
C0C0
C0C0
C0C0
C0C0
C0C0
C0C0
C0C0
C0C0
6180
7F80
1E00
ENDCHAR
STARTCHAR 0171
ENCODING 369
SWIDTH 600 0
DWIDTH 10 0
BBX 8 13 1 0
BITMAP
0D
1B
36
00
C3
C3
C3
C3
C3
C3
C3
7F
3B
ENDCHAR
STARTCHAR 0172
ENCODING 370
SWIDTH 720 0
DWIDTH 12 0
BBX 10 17 1 -4
BITMAP
C0C0
C0C0
C0C0
C0C0
C0C0
C0C0
C0C0
C0C0
C0C0
C0C0
6180
7F80
1E00
0800
1800
1800
0E00
ENDCHAR
STARTCHAR 0173
ENCODING 371
SWIDTH 600 0
DWIDTH 10 0
BBX 8 13 1 -4
BITMAP
C3
C3
C3
C3
C3
C3
C3
7F
3B
06
0C
0D
07
ENDCHAR
STARTCHAR 0174
ENCODING 372
SWIDTH 1080 0
DWIDTH 18 0
BBX 18 17 0 0
BITMAP
00C000
01E000
012000
000000
C300C0
C300C0
618180
618180
20C180
30C300
30C300
19E600
19E600
093400
0F3C00
0E1C00
061800
ENDCHAR
STARTCHAR 0175
ENCODING 373
SWIDTH 720 0
DWIDTH 12 0
BBX 12 13 0 0
BITMAP
0C00
1E00
1300
0000
CC30
C420
6660
6660
6660
3FC0
3FC0
39C0
1980
ENDCHAR
STARTCHAR 0176
ENCODING 374
SWIDTH 660 0
DWIDTH 11 0
BBX 11 17 0 0
BITMAP
0E00
0A00
1B00
0000
C0E0
60C0
3180
3180
1B00
0E00
0E00
0400
0400
0400
0400
0400
0400
ENDCHAR
STARTCHAR 0177
ENCODING 375
SWIDTH 600 0
DWIDTH 10 0
BBX 8 17 1 -4
BITMAP
18
3C
24
00
C3
C3
C3
C3
C3
C3
C3
7F
3B
03
03
7E
7C
ENDCHAR
STARTCHAR 0178
ENCODING 376
SWIDTH 660 0
DWIDTH 11 0
BBX 11 16 0 0
BITMAP
1B00
1B00
0000
C0E0
60C0
3180
3180
1B00
0E00
0E00
0400
0400
0400
0400
0400
0400
ENDCHAR
STARTCHAR 0179
ENCODING 377
SWIDTH 660 0
DWIDTH 11 0
BBX 9 17 1 0
BITMAP
0600
0400
0800
0000
FF80
FF80
0300
0600
0600
0C00
1800
1800
3000
6000
6000
FF80
FF80
ENDCHAR
STARTCHAR 017A
ENCODING 378
SWIDTH 540 0
DWIDTH 9 0
BBX 7 13 1 0
BITMAP
0C
08
10
00
FE
06
0C
18
30
30
60
C0
FE
ENDCHAR
STARTCHAR 017B
ENCODING 379
SWIDTH 660 0
DWIDTH 11 0
BBX 9 16 1 0
BITMAP
0C00
0800
0000
FF80
FF80
0300
0600
0600
0C00
1800
1800
3000
6000
6000
FF80
FF80
ENDCHAR
STARTCHAR 017C
ENCODING 380
SWIDTH 540 0
DWIDTH 9 0
BBX 7 12 1 0
BITMAP
18
18
00
FE
06
0C
18
30
30
60
C0
FE
ENDCHAR
STARTCHAR 017D
ENCODING 381
SWIDTH 660 0
DWIDTH 11 0
BBX 9 17 1 0
BITMAP
3600
1400
1C00
0000
FF80
FF80
0300
0600
0600
0C00
1800
1800
3000
6000
6000
FF80
FF80
ENDCHAR
STARTCHAR 017E
ENCODING 382
SWIDTH 540 0
DWIDTH 9 0
BBX 7 13 1 0
BITMAP
64
28
38
00
FE
06
0C
18
30
30
60
C0
FE
ENDCHAR
STARTCHAR 0192
ENCODING 402
SWIDTH 420 0
DWIDTH 7 0
BBX 6 17 1 -4
BITMAP
1C
30
20
20
F8
60
60
60
60
40
40
C0
C0
C0
C0
80
80
ENDCHAR
STARTCHAR 01CD
ENCODING 461
SWIDTH 720 0
DWIDTH 12 0
BBX 12 17 0 0
BITMAP
0980
0F00
0600
0000
0600
0700
0F00
0D00
1980
1980
18C0
30C0
3040
7FE0
6060
6030
C030
ENDCHAR
STARTCHAR 01CE
ENCODING 462
SWIDTH 540 0
DWIDTH 9 0
BBX 7 13 1 0
BITMAP
6C
28
38
00
78
EC
06
06
7E
C6
86
FE
76
ENDCHAR
STARTCHAR 01CF
ENCODING 463
SWIDTH 240 0
DWIDTH 4 0
BBX 4 17 0 0
BITMAP
90
F0
60
00
60
60
60
60
60
60
60
60
60
60
60
60
60
ENDCHAR
STARTCHAR 01D0
ENCODING 464
SWIDTH 240 0
DWIDTH 4 0
BBX 4 13 0 0
BITMAP
90
F0
60
00
60
60
60
60
60
60
60
60
60
ENDCHAR
STARTCHAR 01D1
ENCODING 465
SWIDTH 840 0
DWIDTH 14 0
BBX 12 17 1 0
BITMAP
0900
0F00
0600
0000
0F00
3FC0
6060
C020
C030
8030
8030
8030
C030
C020
6060
3FC0
0F00
ENDCHAR
STARTCHAR 01D2
ENCODING 466
SWIDTH 540 0
DWIDTH 9 0
BBX 8 13 1 0
BITMAP
64
28
18
00
3C
7E
C3
83
83
83
C3
7E
3C
ENDCHAR
STARTCHAR 01D3
ENCODING 467
SWIDTH 720 0
DWIDTH 12 0
BBX 10 17 1 0
BITMAP
1200
1E00
0C00
0000
C0C0
C0C0
C0C0
C0C0
C0C0
C0C0
C0C0
C0C0
C0C0
C0C0
6180
7F80
1E00
ENDCHAR
STARTCHAR 01D4
ENCODING 468
SWIDTH 600 0
DWIDTH 10 0
BBX 8 13 1 0
BITMAP
24
3C
18
00
C3
C3
C3
C3
C3
C3
C3
7F
3B
ENDCHAR
STARTCHAR 01E6
ENCODING 486
SWIDTH 720 0
DWIDTH 12 0
BBX 10 17 1 0
BITMAP
0C80
0500
0700
0000
0F80
3FC0
7040
6000
C000
C000
C3C0
C3C0
C040
6040
7040
3FC0
0F80
ENDCHAR
STARTCHAR 01E7
ENCODING 487
SWIDTH 600 0
DWIDTH 10 0
BBX 8 17 1 -4
BITMAP
64
28
38
00
3B
FF
C3
83
83
83
C3
FF
3B
03
02
7E
3C
ENDCHAR
STARTCHAR 01FE
ENCODING 510
SWIDTH 840 0
DWIDTH 14 0
BBX 12 17 1 0
BITMAP
0100
0300
0600
0000
0F60
3FC0
60E0
C1B0
C130
8230
8630
8430
C830
D820
7060
3FC0
7F00
ENDCHAR
STARTCHAR 01FF
ENCODING 511
SWIDTH 540 0
DWIDTH 9 0
BBX 8 13 1 0
BITMAP
0C
08
18
00
3E
7E
C7
8B
93
93
E3
FE
FC
ENDCHAR
STARTCHAR 0218
ENCODING 536
SWIDTH 600 0
DWIDTH 10 0
BBX 9 18 1 -5
BITMAP
3E00
7F00
C100
C000
6000
7800
1E00
0300
0180
0180
C180
FF00
3E00
0000
1800
1800
0800
1000
ENDCHAR
STARTCHAR 0219
ENCODING 537
SWIDTH 480 0
DWIDTH 8 0
BBX 6 14 1 -5
BITMAP
78
CC
C0
E0
78
0C
04
CC
78
00
30
30
10
20
ENDCHAR
STARTCHAR 021A
ENCODING 538
SWIDTH 540 0
DWIDTH 9 0
BBX 9 18 0 -5
BITMAP
FF80
FF80
0800
0800
0800
0800
0800
0800
0800
0800
0800
0800
0800
0000
0C00
0C00
0800
0800
ENDCHAR
STARTCHAR 021B
ENCODING 539
SWIDTH 360 0
DWIDTH 6 0
BBX 6 17 0 -5
BITMAP
60
60
60
F8
60
60
60
60
60
60
38
3C
00
18
18
08
10
ENDCHAR
STARTCHAR 0228
ENCODING 552
SWIDTH 540 0
DWIDTH 9 0
BBX 7 17 1 -4
BITMAP
FE
FE
C0
C0
C0
FE
FE
C0
C0
C0
C0
FE
FE
10
38
04
38
ENDCHAR
STARTCHAR 0229
ENCODING 553
SWIDTH 540 0
DWIDTH 9 0
BBX 8 12 1 -4
BITMAP
7C
C6
82
FF
80
C0
EE
3C
10
38
04
38
ENDCHAR
STARTCHAR 0237
ENCODING 567
SWIDTH 300 0
DWIDTH 5 0
BBX 3 13 0 -4
BITMAP
20
20
20
20
20
20
20
20
20
20
20
60
C0
ENDCHAR
STARTCHAR 02C6
ENCODING 710
SWIDTH 60 0
DWIDTH 1 0
BBX 5 3 0 10
BITMAP
30
78
C8
ENDCHAR
STARTCHAR 02C7
ENCODING 711
SWIDTH 60 0
DWIDTH 1 0
BBX 4 3 1 10
BITMAP
90
F0
60
ENDCHAR
STARTCHAR 02D8
ENCODING 728
SWIDTH 60 0
DWIDTH 1 0
BBX 6 3 2 9
BITMAP
84
C8
78
ENDCHAR
STARTCHAR 02D9
ENCODING 729
SWIDTH 60 0
DWIDTH 1 0
BBX 2 2 1 10
BITMAP
40
C0
ENDCHAR
STARTCHAR 02DA
ENCODING 730
SWIDTH 60 0
DWIDTH 1 0
BBX 3 4 0 9
BITMAP
E0
A0
A0
E0
ENDCHAR
STARTCHAR 02DB
ENCODING 731
SWIDTH 60 0
DWIDTH 1 0
BBX 4 4 0 -4
BITMAP
60
C0
C0
70
ENDCHAR
STARTCHAR 02DC
ENCODING 732
SWIDTH 60 0
DWIDTH 1 0
BBX 6 3 0 10
BITMAP
64
D4
DC
ENDCHAR
STARTCHAR 02DD
ENCODING 733
SWIDTH 60 0
DWIDTH 1 0
BBX 7 3 0 10
BITMAP
36
2C
D8
ENDCHAR
STARTCHAR 0300
ENCODING 768
SWIDTH 0 0
DWIDTH 0 0
BBX 2 3 -3 10
BITMAP
80
C0
40
ENDCHAR
STARTCHAR 0301
ENCODING 769
SWIDTH 0 0
DWIDTH 0 0
BBX 3 3 -4 10
BITMAP
20
60
C0
ENDCHAR
STARTCHAR 0302
ENCODING 770
SWIDTH 0 0
DWIDTH 0 0
BBX 4 3 -5 10
BITMAP
60
F0
90
ENDCHAR
STARTCHAR 0303
ENCODING 771
SWIDTH 0 0
DWIDTH 0 0
BBX 6 3 -6 10
BITMAP
EC
AC
98
ENDCHAR
STARTCHAR 0304
ENCODING 772
SWIDTH 0 0
DWIDTH 0 0
BBX 6 1 -6 10
BITMAP
FC
ENDCHAR
STARTCHAR 0306
ENCODING 774
SWIDTH 0 0
DWIDTH 0 0
BBX 6 3 -9 9
BITMAP
C4
44
38
ENDCHAR
STARTCHAR 0307
ENCODING 775
SWIDTH 0 0
DWIDTH 0 0
BBX 1 2 -3 10
BITMAP
80
80
ENDCHAR
STARTCHAR 0308
ENCODING 776
SWIDTH 0 0
DWIDTH 0 0
BBX 5 2 -6 10
BITMAP
D8
D8
ENDCHAR
STARTCHAR 030A
ENCODING 778
SWIDTH 0 0
DWIDTH 0 0
BBX 3 4 -3 9
BITMAP
E0
A0
A0
E0
ENDCHAR
STARTCHAR 030B
ENCODING 779
SWIDTH 0 0
DWIDTH 0 0
BBX 6 3 -7 10
BITMAP
24
48
D0
ENDCHAR
STARTCHAR 030C
ENCODING 780
SWIDTH 0 0
DWIDTH 0 0
BBX 4 3 -5 10
BITMAP
90
F0
60
ENDCHAR
STARTCHAR 0312
ENCODING 786
SWIDTH 0 0
DWIDTH 0 0
BBX 2 3 -3 10
BITMAP
40
C0
40
ENDCHAR
STARTCHAR 0323
ENCODING 803
SWIDTH 0 0
DWIDTH 0 0
BBX 1 2 -2 -4
BITMAP
80
80
ENDCHAR
STARTCHAR 0326
ENCODING 806
SWIDTH 0 0
DWIDTH 0 0
BBX 2 4 -2 -2
BITMAP
80
C0
80
80
ENDCHAR
STARTCHAR 0327
ENCODING 807
SWIDTH 0 0
DWIDTH 0 0
BBX 4 4 -4 -4
BITMAP
40
E0
10
E0
ENDCHAR
STARTCHAR 0328
ENCODING 808
SWIDTH 0 0
DWIDTH 0 0
BBX 4 4 -5 -4
BITMAP
60
C0
80
70
ENDCHAR
STARTCHAR 0335
ENCODING 821
SWIDTH 0 0
DWIDTH 0 0
BBX 5 1 -8 4
BITMAP
F8
ENDCHAR
STARTCHAR 0336
ENCODING 822
SWIDTH 0 0
DWIDTH 0 0
BBX 13 1 -13 4
BITMAP
FFF8
ENDCHAR
STARTCHAR 0337
ENCODING 823
SWIDTH 0 0
DWIDTH 0 0
BBX 5 5 -7 2
BITMAP
08
10
20
40
80
ENDCHAR
STARTCHAR 0338
ENCODING 824
SWIDTH 0 0
DWIDTH 0 0
BBX 10 13 -10 0
BITMAP
00C0
0180
0100
0200
0600
0400
0800
1800
1000
2000
6000
4000
8000
ENDCHAR
STARTCHAR 0394
ENCODING 916
SWIDTH 780 0
DWIDTH 13 0
BBX 13 13 0 0
BITMAP
0700
0700
0580
0D80
0880
18C0
1040
3060
3060
2030
6030
4010
FFF8
ENDCHAR
STARTCHAR 039B
ENCODING 923
SWIDTH 720 0
DWIDTH 12 0
BBX 12 13 0 0
BITMAP
0600
0700
0F00
0D00
1980
1980
18C0
30C0
3040
6060
6060
6030
C030
ENDCHAR
STARTCHAR 039E
ENCODING 926
SWIDTH 600 0
DWIDTH 10 0
BBX 8 13 1 0
BITMAP
FF
FF
00
00
00
7E
7E
00
00
00
00
FF
FF
ENDCHAR
STARTCHAR 03A9
ENCODING 937
SWIDTH 900 0
DWIDTH 15 0
BBX 13 13 1 0
BITMAP
0F80
38E0
6060
6030
C010
C018
C018
C018
4010
6030
2020
3040
F8F8
ENDCHAR
STARTCHAR 03BC
ENCODING 956
SWIDTH 600 0
DWIDTH 10 0
BBX 8 13 1 -4
BITMAP
C3
C3
C3
C3
C3
C3
C3
FF
FB
C0
C0
C0
C0
ENDCHAR
STARTCHAR 03C0
ENCODING 960
SWIDTH 720 0
DWIDTH 12 0
BBX 11 9 0 0
BITMAP
FFE0
1080
3080
3080
3080
3080
2080
20C0
60C0
ENDCHAR
STARTCHAR 1E04
ENCODING 7684
SWIDTH 660 0
DWIDTH 11 0
BBX 9 16 1 -3
BITMAP
FC00
FF00
C300
C300
C300
C600
FF00
C180
C180
C180
C180
FF00
FE00
0000
1800
1800
ENDCHAR
STARTCHAR 1E05
ENCODING 7685
SWIDTH 600 0
DWIDTH 10 0
BBX 8 16 1 -3
BITMAP
C0
C0
C0
C0
DC
FE
C3
C1
C1
C1
C3
FE
DC
00
0C
08
ENDCHAR
STARTCHAR 1E24
ENCODING 7716
SWIDTH 720 0
DWIDTH 12 0
BBX 10 16 1 -3
BITMAP
C0C0
C0C0
C0C0
C0C0
C0C0
C0C0
FFC0
FFC0
C0C0
C0C0
C0C0
C0C0
C0C0
0000
0C00
0C00
ENDCHAR
STARTCHAR 1E25
ENCODING 7717
SWIDTH 600 0
DWIDTH 10 0
BBX 8 16 1 -3
BITMAP
C0
C0
C0
C0
DC
FE
C3
C3
C3
C3
C3
C3
C3
00
18
18
ENDCHAR
STARTCHAR 1E36
ENCODING 7734
SWIDTH 480 0
DWIDTH 8 0
BBX 6 16 1 -3
BITMAP
C0
C0
C0
C0
C0
C0
C0
C0
C0
C0
C0
FC
FC
00
30
30
ENDCHAR
STARTCHAR 1E37
ENCODING 7735
SWIDTH 300 0
DWIDTH 5 0
BBX 5 16 1 -3
BITMAP
C0
C0
C0
C0
C0
C0
C0
C0
C0
C0
C0
F0
78
00
30
20
ENDCHAR
STARTCHAR 1E44
ENCODING 7748
SWIDTH 780 0
DWIDTH 13 0
BBX 11 16 1 0
BITMAP
0C00
0400
0000
C060
E060
F060
F060
D860
CC60
CE60
C660
C360
C1E0
C1E0
C0E0
C060
ENDCHAR
STARTCHAR 1E45
ENCODING 7749
SWIDTH 600 0
DWIDTH 10 0
BBX 8 12 1 0
BITMAP
18
18
00
DC
FE
C3
C3
C3
C3
C3
C3
C3
ENDCHAR
STARTCHAR 1E46
ENCODING 7750
SWIDTH 780 0
DWIDTH 13 0
BBX 11 16 1 -3
BITMAP
C060
E060
F060
F060
D860
CC60
CE60
C660
C360
C1E0
C1E0
C0E0
C060
0000
0600
0400
ENDCHAR
STARTCHAR 1E47
ENCODING 7751
SWIDTH 600 0
DWIDTH 10 0
BBX 8 12 1 -3
BITMAP
DC
FE
C3
C3
C3
C3
C3
C3
C3
00
18
18
ENDCHAR
STARTCHAR 1E62
ENCODING 7778
SWIDTH 600 0
DWIDTH 10 0
BBX 9 16 1 -3
BITMAP
3E00
7F00
C100
C000
6000
7800
1E00
0300
0180
0180
C180
FF00
3E00
0000
1800
1800
ENDCHAR
STARTCHAR 1E63
ENCODING 7779
SWIDTH 480 0
DWIDTH 8 0
BBX 6 12 1 -3
BITMAP
78
CC
C0
E0
78
0C
04
CC
78
00
30
30
ENDCHAR
STARTCHAR 1E6C
ENCODING 7788
SWIDTH 540 0
DWIDTH 9 0
BBX 9 16 0 -3
BITMAP
FF80
FF80
0800
0800
0800
0800
0800
0800
0800
0800
0800
0800
0800
0000
0C00
0800
ENDCHAR
STARTCHAR 1E6D
ENCODING 7789
SWIDTH 360 0
DWIDTH 6 0
BBX 6 15 0 -3
BITMAP
60
60
60
F8
60
60
60
60
60
60
38
3C
00
18
18
ENDCHAR
STARTCHAR 1E80
ENCODING 7808
SWIDTH 1080 0
DWIDTH 18 0
BBX 18 17 0 0
BITMAP
010000
018000
00C000
000000
C300C0
C300C0
618180
618180
20C180
30C300
30C300
19E600
19E600
093400
0F3C00
0E1C00
061800
ENDCHAR
STARTCHAR 1E81
ENCODING 7809
SWIDTH 720 0
DWIDTH 12 0
BBX 12 13 0 0
BITMAP
1800
0800
0C00
0000
CC30
C420
6660
6660
6660
3FC0
3FC0
39C0
1980
ENDCHAR
STARTCHAR 1E82
ENCODING 7810
SWIDTH 1080 0
DWIDTH 18 0
BBX 18 17 0 0
BITMAP
002000
006000
00C000
000000
C300C0
C300C0
618180
618180
20C180
30C300
30C300
19E600
19E600
093400
0F3C00
0E1C00
061800
ENDCHAR
STARTCHAR 1E83
ENCODING 7811
SWIDTH 720 0
DWIDTH 12 0
BBX 12 13 0 0
BITMAP
0300
0600
0400
0000
CC30
C420
6660
6660
6660
3FC0
3FC0
39C0
1980
ENDCHAR
STARTCHAR 1E84
ENCODING 7812
SWIDTH 1080 0
DWIDTH 18 0
BBX 18 16 0 0
BITMAP
033000
013000
000000
C300C0
C300C0
618180
618180
20C180
30C300
30C300
19E600
19E600
093400
0F3C00
0E1C00
061800
ENDCHAR
STARTCHAR 1E85
ENCODING 7813
SWIDTH 720 0
DWIDTH 12 0
BBX 12 12 0 0
BITMAP
1B00
1B00
0000
CC30
C420
6660
6660
6660
3FC0
3FC0
39C0
1980
ENDCHAR
STARTCHAR 1E92
ENCODING 7826
SWIDTH 660 0
DWIDTH 11 0
BBX 9 16 1 -3
BITMAP
FF80
FF80
0300
0600
0600
0C00
1800
1800
3000
6000
6000
FF80
FF80
0000
1800
0800
ENDCHAR
STARTCHAR 1E93
ENCODING 7827
SWIDTH 540 0
DWIDTH 9 0
BBX 7 12 1 -3
BITMAP
FE
06
0C
18
30
30
60
C0
FE
00
30
30
ENDCHAR
STARTCHAR 1EA0
ENCODING 7840
SWIDTH 720 0
DWIDTH 12 0
BBX 12 16 0 -3
BITMAP
0600
0700
0F00
0D00
1980
1980
18C0
30C0
3040
7FE0
6060
6030
C030
0000
0600
0600
ENDCHAR
STARTCHAR 1EA1
ENCODING 7841
SWIDTH 540 0
DWIDTH 9 0
BBX 7 11 1 -3
BITMAP
FC
C6
06
7E
C6
86
FE
76
00
30
30
ENDCHAR
STARTCHAR 1EB8
ENCODING 7864
SWIDTH 540 0
DWIDTH 9 0
BBX 7 16 1 -3
BITMAP
FE
FE
C0
C0
C0
FE
FE
C0
C0
C0
C0
FE
FE
00
18
18
ENDCHAR
STARTCHAR 1EB9
ENCODING 7865
SWIDTH 540 0
DWIDTH 9 0
BBX 8 11 1 -3
BITMAP
7C
C6
82
FF
80
C0
EE
3C
00
18
18
ENDCHAR
STARTCHAR 1EBC
ENCODING 7868
SWIDTH 540 0
DWIDTH 9 0
BBX 7 17 1 0
BITMAP
76
54
4C
00
FE
FE
C0
C0
C0
FE
FE
C0
C0
C0
C0
FE
FE
ENDCHAR
STARTCHAR 1EBD
ENCODING 7869
SWIDTH 540 0
DWIDTH 9 0
BBX 8 12 1 0
BITMAP
76
54
4C
00
7C
C6
82
FF
80
C0
EE
3C
ENDCHAR
STARTCHAR 1ECA
ENCODING 7882
SWIDTH 240 0
DWIDTH 4 0
BBX 2 16 1 -3
BITMAP
C0
C0
C0
C0
C0
C0
C0
C0
C0
C0
C0
C0
C0
00
C0
C0
ENDCHAR
STARTCHAR 1ECB
ENCODING 7883
SWIDTH 300 0
DWIDTH 5 0
BBX 2 15 1 -3
BITMAP
C0
C0
00
C0
C0
C0
C0
C0
C0
C0
C0
C0
00
C0
C0
ENDCHAR
STARTCHAR 1ECC
ENCODING 7884
SWIDTH 840 0
DWIDTH 14 0
BBX 12 16 1 -3
BITMAP
0F00
3FC0
6060
C020
C030
8030
8030
8030
C030
C020
6060
3FC0
0F00
0000
0600
0600
ENDCHAR
STARTCHAR 1ECD
ENCODING 7885
SWIDTH 540 0
DWIDTH 9 0
BBX 8 11 1 -3
BITMAP
7C
C6
83
83
83
C3
7E
3C
00
18
18
ENDCHAR
STARTCHAR 1EE4
ENCODING 7908
SWIDTH 720 0
DWIDTH 12 0
BBX 10 16 1 -3
BITMAP
C0C0
C0C0
C0C0
C0C0
C0C0
C0C0
C0C0
C0C0
C0C0
C0C0
6180
7F80
1E00
0000
0C00
0C00
ENDCHAR
STARTCHAR 1EF2
ENCODING 7922
SWIDTH 660 0
DWIDTH 11 0
BBX 11 17 0 0
BITMAP
1800
0800
0400
0000
C0E0
60C0
3180
3180
1B00
0E00
0E00
0400
0400
0400
0400
0400
0400
ENDCHAR
STARTCHAR 1EF3
ENCODING 7923
SWIDTH 600 0
DWIDTH 10 0
BBX 8 17 1 -4
BITMAP
20
30
18
00
C3
C3
C3
C3
C3
C3
C3
7F
3B
03
03
7E
7C
ENDCHAR
STARTCHAR 1EF4
ENCODING 7924
SWIDTH 660 0
DWIDTH 11 0
BBX 10 16 0 -3
BITMAP
C0C0
60C0
3180
3180
1B00
0E00
0E00
0400
0400
0400
0400
0400
0400
0000
0C00
0400
ENDCHAR
STARTCHAR 1EF8
ENCODING 7928
SWIDTH 660 0
DWIDTH 11 0
BBX 11 17 0 0
BITMAP
1D00
1500
1700
0000
C0E0
60C0
3180
3180
1B00
0E00
0E00
0400
0400
0400
0400
0400
0400
ENDCHAR
STARTCHAR 2013
ENCODING 8211
SWIDTH 660 0
DWIDTH 11 0
BBX 9 1 1 4
BITMAP
FF80
ENDCHAR
STARTCHAR 2014
ENCODING 8212
SWIDTH 1020 0
DWIDTH 17 0
BBX 17 1 0 4
BITMAP
FFFF80
ENDCHAR
STARTCHAR 2018
ENCODING 8216
SWIDTH 240 0
DWIDTH 4 0
BBX 3 5 0 8
BITMAP
20
40
80
E0
60
ENDCHAR
STARTCHAR 2019
ENCODING 8217
SWIDTH 180 0
DWIDTH 3 0
BBX 2 5 1 8
BITMAP
80
C0
40
80
80
ENDCHAR
STARTCHAR 201A
ENCODING 8218
SWIDTH 240 0
DWIDTH 4 0
BBX 2 5 1 -3
BITMAP
C0
C0
40
40
80
ENDCHAR
STARTCHAR 201C
ENCODING 8220
SWIDTH 420 0
DWIDTH 7 0
BBX 5 5 2 8
BITMAP
48
90
90
D8
D8
ENDCHAR
STARTCHAR 201D
ENCODING 8221
SWIDTH 420 0
DWIDTH 7 0
BBX 4 5 1 8
BITMAP
B0
F0
50
90
A0
ENDCHAR
STARTCHAR 201E
ENCODING 8222
SWIDTH 420 0
DWIDTH 7 0
BBX 5 5 1 -3
BITMAP
D0
D8
48
58
90
ENDCHAR
STARTCHAR 2020
ENCODING 8224
SWIDTH 660 0
DWIDTH 11 0
BBX 7 14 2 -3
BITMAP
10
10
10
FE
10
10
10
10
10
10
10
10
10
10
ENDCHAR
STARTCHAR 2021
ENCODING 8225
SWIDTH 660 0
DWIDTH 11 0
BBX 7 14 2 -3
BITMAP
10
10
10
FE
10
10
10
10
10
FE
10
10
10
10
ENDCHAR
STARTCHAR 2022
ENCODING 8226
SWIDTH 480 0
DWIDTH 8 0
BBX 4 4 2 4
BITMAP
60
F0
F0
F0
ENDCHAR
STARTCHAR 2026
ENCODING 8230
SWIDTH 720 0
DWIDTH 12 0
BBX 8 2 1 0
BITMAP
9B
DB
ENDCHAR
STARTCHAR 2030
ENCODING 8240
SWIDTH 1080 0
DWIDTH 18 0
BBX 16 13 1 0
BITMAP
70C0
D0C0
9980
9B00
F300
0600
0C00
0800
19CE
3279
2279
634B
C1CE
ENDCHAR
STARTCHAR 2039
ENCODING 8249
SWIDTH 360 0
DWIDTH 6 0
BBX 3 6 1 2
BITMAP
20
60
C0
C0
40
20
ENDCHAR
STARTCHAR 203A
ENCODING 8250
SWIDTH 360 0
DWIDTH 6 0
BBX 4 6 1 2
BITMAP
C0
60
30
30
60
C0
ENDCHAR
STARTCHAR 2044
ENCODING 8260
SWIDTH 600 0
DWIDTH 10 0
BBX 10 13 0 0
BITMAP
00C0
0180
0100
0300
0600
0400
0C00
1800
1000
3000
6000
4000
C000
ENDCHAR
STARTCHAR 20AC
ENCODING 8364
SWIDTH 660 0
DWIDTH 11 0
BBX 9 13 1 0
BITMAP
1E00
3300
6180
6000
6000
FC00
6000
6000
FC00
6000
6180
3300
1E00
ENDCHAR
STARTCHAR 2113
ENCODING 8467
SWIDTH 600 0
DWIDTH 10 0
BBX 9 14 0 0
BITMAP
0E00
1B00
3100
3100
3300
3200
3600
3C00
3800
3000
F000
3080
1980
0E00
ENDCHAR
STARTCHAR 2122
ENCODING 8482
SWIDTH 720 0
DWIDTH 12 0
BBX 11 6 0 7
BITMAP
F420
2660
27A0
25A0
2420
2420
ENDCHAR
STARTCHAR 212E
ENCODING 8494
SWIDTH 900 0
DWIDTH 15 0
BBX 15 13 0 0
BITMAP
07C0
1830
2008
600C
600E
600E
FFFE
E000
6000
6000
2008
1010
0FE0
ENDCHAR
STARTCHAR 2190
ENCODING 8592
SWIDTH 840 0
DWIDTH 14 0
BBX 13 6 0 2
BITMAP
1000
3000
7FF8
FFF8
3000
1000
ENDCHAR
STARTCHAR 2191
ENCODING 8593
SWIDTH 540 0
DWIDTH 9 0
BBX 6 13 1 0
BITMAP
10
30
78
FC
30
30
30
30
30
30
30
30
30
ENDCHAR
STARTCHAR 2192
ENCODING 8594
SWIDTH 840 0
DWIDTH 14 0
BBX 13 6 1 3
BITMAP
0040
0060
FFF0
FFF8
0060
0040
ENDCHAR
STARTCHAR 2193
ENCODING 8595
SWIDTH 480 0
DWIDTH 8 0
BBX 6 13 1 0
BITMAP
30
30
30
30
30
30
30
30
30
FC
78
30
10
ENDCHAR
STARTCHAR 2194
ENCODING 8596
SWIDTH 840 0
DWIDTH 14 0
BBX 16 6 -1 2
BITMAP
1008
3004
7FFF
FFFF
3006
100C
ENDCHAR
STARTCHAR 2195
ENCODING 8597
SWIDTH 480 0
DWIDTH 8 0
BBX 6 13 1 0
BITMAP
30
78
FC
30
30
30
30
30
30
FC
78
30
10
ENDCHAR
STARTCHAR 2196
ENCODING 8598
SWIDTH 540 0
DWIDTH 9 0
BBX 10 10 0 1
BITMAP
C000
7800
7000
7800
5C00
0E00
0700
0380
01C0
0080
ENDCHAR
STARTCHAR 2197
ENCODING 8599
SWIDTH 540 0
DWIDTH 9 0
BBX 10 10 -1 1
BITMAP
00C0
0780
0380
0780
0E80
1C00
3800
7000
E000
4000
ENDCHAR
STARTCHAR 2198
ENCODING 8600
SWIDTH 540 0
DWIDTH 9 0
BBX 10 10 -1 2
BITMAP
4000
E000
7000
3800
1C00
0E80
0780
0380
0780
03C0
ENDCHAR
STARTCHAR 2199
ENCODING 8601
SWIDTH 540 0
DWIDTH 9 0
BBX 10 10 0 2
BITMAP
0080
01C0
0380
0700
0E00
5C00
7800
7000
7800
F000
ENDCHAR
STARTCHAR 2202
ENCODING 8706
SWIDTH 540 0
DWIDTH 9 0
BBX 7 12 1 0
BITMAP
30
0C
04
06
3E
62
C2
C2
86
86
CC
78
ENDCHAR
STARTCHAR 2205
ENCODING 8709
SWIDTH 840 0
DWIDTH 14 0
BBX 10 10 2 0
BITMAP
1E00
7380
C180
82C0
84C0
88C0
90C0
E080
7300
1E00
ENDCHAR
STARTCHAR 220F
ENCODING 8719
SWIDTH 720 0
DWIDTH 12 0
BBX 11 14 1 -2
BITMAP
FFE0
1300
1300
1300
1300
1300
1300
1300
1300
1300
1300
1300
1300
1300
ENDCHAR
STARTCHAR 2211
ENCODING 8721
SWIDTH 780 0
DWIDTH 13 0
BBX 10 14 1 -2
BITMAP
FFC0
6000
3000
1800
0C00
0600
0300
0300
0600
0C00
1800
3000
6000
FFC0
ENDCHAR
STARTCHAR 2212
ENCODING 8722
SWIDTH 720 0
DWIDTH 12 0
BBX 10 1 1 4
BITMAP
FFC0
ENDCHAR
STARTCHAR 221A
ENCODING 8730
SWIDTH 720 0
DWIDTH 12 0
BBX 11 14 1 -1
BITMAP
0060
0040
00C0
0080
0180
0100
0300
C200
6600
2400
2C00
3800
1800
1000
ENDCHAR
STARTCHAR 221E
ENCODING 8734
SWIDTH 780 0
DWIDTH 13 0
BBX 11 4 1 3
BITMAP
73C0
8E60
8E60
73C0
ENDCHAR
STARTCHAR 222B
ENCODING 8747
SWIDTH 480 0
DWIDTH 8 0
BBX 5 16 1 -3
BITMAP
18
28
20
20
20
20
20
20
20
20
20
20
20
20
A0
60
ENDCHAR
STARTCHAR 2248
ENCODING 8776
SWIDTH 600 0
DWIDTH 10 0
BBX 8 6 1 2
BITMAP
71
9B
06
71
99
8E
ENDCHAR
STARTCHAR 2260
ENCODING 8800
SWIDTH 720 0
DWIDTH 12 0
BBX 10 8 1 1
BITMAP
0080
0100
FFC0
0400
0800
FFC0
3000
6000
ENDCHAR
STARTCHAR 2264
ENCODING 8804
SWIDTH 780 0
DWIDTH 13 0
BBX 9 12 2 0
BITMAP
0080
0180
0E00
3800
E000
C000
7000
1C00
0700
0180
0000
FF80
ENDCHAR
STARTCHAR 2265
ENCODING 8805
SWIDTH 780 0
DWIDTH 13 0
BBX 9 12 2 0
BITMAP
8000
E000
3800
0E00
0380
0180
0700
1C00
7000
C000
0000
FF80
ENDCHAR
STARTCHAR 25CA
ENCODING 9674
SWIDTH 780 0
DWIDTH 13 0
BBX 9 10 2 1
BITMAP
0800
1C00
3600
6300
C180
C180
6300
3600
1C00
0800
ENDCHAR
STARTCHAR F8FF
ENCODING 63743
SWIDTH 960 0
DWIDTH 16 0
BBX 13 13 2 0
BITMAP
0F00
30C0
4020
8010
A250
A288
BF08
A388
A2D0
8010
4020
2040
1F80
ENDCHAR
STARTCHAR FB01
ENCODING 64257
SWIDTH 600 0
DWIDTH 10 0
BBX 8 13 1 0
BITMAP
3F
61
60
60
FF
63
63
63
63
63
63
63
63
ENDCHAR
STARTCHAR FB02
ENCODING 64258
SWIDTH 660 0
DWIDTH 11 0
BBX 11 13 1 0
BITMAP
1F00
3300
6300
6300
FB00
6300
6300
6300
6300
6300
6300
63C0
61E0
ENDCHAR
ENDFONT
